<svg xmlns="http://www.w3.org/2000/svg" xmlns:xlink="http://www.w3.org/1999/xlink" version="1.1" id="Layer_1" x="0px" y="0px" viewBox="0 0 512 512" style="enable-background:new 0 0 512 512;" xml:space="preserve" data-inject-url="https://eliterishtay.pk/public/shaadi_icons/Elite_Matrimonial.svg" class="svg-inject svg-icon">
<style type="text/css">
	.st0{fill:#FFFFFF;}
</style>
<g>
	<g>
		<g>
			<path class="st0" d="M467.6,140.6c-24.5,0-44.4,19.9-44.4,44.4c0,12.4,5.1,23.7,13.4,31.7l-77.4,62.6L275,152.7     c20.2-7.2,34.8-26.5,34.8-49.2c0-28.8-23.4-52.2-52.2-52.2s-52.2,23.4-52.2,52.2c0,22.7,14.5,42,34.8,49.2l-84.1,126.6l-79.1-64     c7.4-7.9,12-18.6,12-30.3c0-24.5-19.9-44.4-44.4-44.4S0,160.5,0,185c0,22.1,16.2,40.4,37.3,43.8L74.9,452c0.8,5,5.2,8.8,10.3,8.8     H430c5.1,0,9.5-3.7,10.3-8.8l37.6-223.8c19.5-4.7,34.1-22.3,34.1-43.2C512,160.5,492.1,140.6,467.6,140.6z M226.2,103.5     c0-17.3,14.1-31.3,31.3-31.3s31.3,14.1,31.3,31.3s-14.1,31.3-31.3,31.3C240.3,134.8,226.2,120.8,226.2,103.5z M20.9,185     c0-13,10.5-23.5,23.5-23.5S67.9,172,67.9,185s-10.5,23.5-23.5,23.5S20.9,198,20.9,185z M421.1,439.8H94L68.7,289.6l92.4,74.6     c2.3,1.8,5.2,2.6,8.2,2.2c2.9-0.4,5.5-2.1,7.1-4.6l81.1-122.1l81.2,122.2c1.6,2.5,4.2,4.1,7.1,4.5c2.9,0.4,5.9-0.4,8.2-2.2     l92.4-75L421.1,439.8z M451.7,257.9l-101.9,82.8L266.3,215c-1.9-2.9-5.2-4.7-8.7-4.7s-6.8,1.8-8.7,4.7l-83.5,125.7L63.5,258.4     l-5.3-31.2l93.5,75.6c2.3,1.9,5.2,2.6,8.2,2.2c2.9-0.4,5.5-2.1,7.1-4.5l90.6-136.3l90.6,136.3c1.6,2.5,4.2,4.1,7.1,4.5     c2.9,0.4,5.9-0.4,8.2-2.2l92.6-75c0.2,0.1,0.5,0.1,0.7,0.2L451.7,257.9z M467.6,208.5c-13,0-23.5-10.5-23.5-23.5     s10.5-23.5,23.5-23.5c13,0,23.5,10.5,23.5,23.5S480.6,208.5,467.6,208.5z"></path>
			<path class="st0" d="M266.1,301c-2-2.8-5.1-4.4-8.5-4.4c-3.4,0-6.6,1.6-8.5,4.4l-37.6,53.3c-2.6,3.6-2.6,8.4,0,12.1l37.6,53.3     c2,2.8,5.1,4.4,8.5,4.4s6.6-1.6,8.5-4.4l37.6-53.3c2.6-3.6,2.6-8.4,0-12.1L266.1,301z M257.6,395.5l-24.8-35.2l24.8-35.2     l24.8,35.2L257.6,395.5z"></path>
		</g>
	</g>
</g>
</svg>