<?xml version="1.0" encoding="utf-8"?>
<!-- Generator: Adobe Illustrator 25.4.1, SVG Export Plug-In . SVG Version: 6.00 Build 0)  -->
<svg version="1.1" id="Layer_1" xmlns="http://www.w3.org/2000/svg" xmlns:xlink="http://www.w3.org/1999/xlink" x="0px" y="0px"
	 viewBox="0 0 24 24" style="enable-background:new 0 0 24 24;" xml:space="preserve">
<style type="text/css">
	.st0{fill:#FFFFFF;}
</style>
<g>
	<path class="st0" d="M12,23.9C5.4,23.9,0.1,18.6,0.1,12S5.4,0.1,12,0.1S23.9,5.4,23.9,12S18.6,23.9,12,23.9z M12,1.6
		C6.3,1.6,1.6,6.3,1.6,12c0,5.7,4.7,10.4,10.4,10.4c5.7,0,10.4-4.7,10.4-10.4C22.4,6.3,17.7,1.6,12,1.6z"/>
</g>
<g>
	<path class="st0" d="M22.4,9H1.6C1.2,9,0.9,8.7,0.9,8.3s0.3-0.8,0.8-0.8h20.8c0.4,0,0.8,0.3,0.8,0.8S22.8,9,22.4,9z"/>
</g>
<g>
	<path class="st0" d="M22.4,16.5H1.6c-0.4,0-0.8-0.3-0.8-0.8S1.2,15,1.6,15h20.8c0.4,0,0.8,0.3,0.8,0.8S22.8,16.5,22.4,16.5z"/>
</g>
<g>
	<path class="st0" d="M11.4,23.9c-0.3,0-0.5-0.1-0.6-0.4c-4.4-7-4.4-16.1,0-23.1c0.2-0.4,0.7-0.5,1-0.2c0.4,0.2,0.5,0.7,0.2,1
		c-4.1,6.5-4.1,15,0,21.5c0.2,0.4,0.1,0.8-0.2,1C11.7,23.8,11.5,23.9,11.4,23.9z"/>
</g>
<g>
	<path class="st0" d="M12.6,23.9c-0.1,0-0.3,0-0.4-0.1c-0.4-0.2-0.5-0.7-0.2-1c4.1-6.5,4.1-15,0-21.5c-0.2-0.4-0.1-0.8,0.2-1
		c0.4-0.2,0.8-0.1,1,0.2c4.4,7,4.4,16.1,0,23.1C13.1,23.8,12.9,23.9,12.6,23.9z"/>
</g>
</svg>
