<?xml version="1.0" encoding="utf-8"?>
<!-- Generator: Adobe Illustrator 24.3.0, SVG Export Plug-In . SVG Version: 6.00 Build 0)  -->
<svg version="1.1" id="Layer_1" xmlns="http://www.w3.org/2000/svg" xmlns:xlink="http://www.w3.org/1999/xlink" x="0px" y="0px"
	 viewBox="0 0 368.34 166.89" style="enable-background:new 0 0 368.34 166.89;" xml:space="preserve">
<style type="text/css">
	.st0{fill:#FFFFFF;}
	.st1{fill:#FFFFFF;stroke:#FFFFFF;stroke-width:0;stroke-linecap:round;stroke-linejoin:round;}
</style>
<g>
	<g>
		<path class="st0" d="M165.53,69.49c-0.43-0.51-0.84-1.02-1.32-1.6c-0.47,0.66-0.86,1.24-1.29,1.8c-0.23,0.3-0.15,0.51,0.08,0.75
			c0.42,0.44,0.83,0.9,1.37,1.49c0.38-0.44,0.72-0.87,1.1-1.26c0.47-0.49,0.48-0.48,1.05-0.05c0.01-0.32-0.28-0.48-0.39-0.73l0,0
			C165.79,69.95,165.69,69.67,165.53,69.49z"/>
	</g>
	<g>
		<path class="st0" d="M167.65,71.86c0.47-0.51,0.91-0.98,1.35-1.45c0.17-0.18,0.3-0.32,0.09-0.57c-0.53-0.63-1.04-1.26-1.62-1.98
			c-0.5,0.75-0.93,1.39-1.35,2.02v0c0.11,0.26,0.4,0.41,0.39,0.73C166.81,71.07,167.17,71.45,167.65,71.86z"/>
	</g>
	<g>
		<g>
			<path class="st0" d="M155.29,66.3c0.67,0.21,1.38,0.35,2.09,0.2c3.68-0.8,7.12-2.18,10.3-4.21c0.76-0.49,1.36-1.18,2.11-1.67
				c0.03-0.1,0.1-0.18,0.17-0.05c0.07,0.16-0.01,0.31-0.13,0.42c-0.05,0.32-0.1,0.64-0.13,0.96c-0.14,1.42,0.16,2.76,0.87,3.99
				c0.74,1.27,1.83,1.66,3.21,1.19c0.52-0.18,0.99-0.45,1.45-0.76c1.55-1.04,3.04-2.16,4.53-3.29c0.25-0.19,0.47-0.45,0.83-0.54
				c0.21,0.57,0.41,1.14,0.65,1.7c0.36,0.87,0.77,1.7,1.43,2.39c0.62,0.64,1.31,0.86,2.18,0.55c1.73-0.62,3.1-1.68,4.16-3.16
				c0.2-0.28,0.4-0.55,0.66-0.9c0.1,0.52,0.18,0.93,0.25,1.33c0.13,0.74,0.33,1.44,0.75,2.07c0.54,0.82,1.12,1.02,2.07,0.71
				c1.57-0.52,2.87-1.43,3.82-2.81c0.1-0.15,0.12-0.37,0.39-0.41c0.21,0.42,0.39,0.86,0.63,1.26c0.67,1.12,1.43,1.34,2.6,0.73
				c1.3-0.68,2.04-1.83,2.5-3.18c0.06-0.17,0.05-0.38,0.03-0.57c-0.2-1.55-0.4-3.1-0.63-4.85c-0.36,0.4-0.58,0.69-0.85,0.94
				c-0.42,0.39-0.53,0.8-0.35,1.38c0.24,0.77,0.3,1.58,0.12,2.39c-0.16,0.74-0.62,1.18-1.37,1.32c-0.85,0.16-1.38-0.28-1.34-1.16
				c0.02-0.56,0.23-1.06,0.5-1.54c0.36-0.63,0.36-0.63-0.24-1.28c-0.33,0.78-0.7,1.53-1.24,2.18c-1.26,1.5-2.83,2.43-4.81,2.52
				c-1.01,0.05-1.54-0.49-1.63-1.5c-0.06-0.75,0.09-1.47,0.27-2.19c-0.08-0.07-0.16-0.14-0.23-0.21c0,0,0,0,0,0
				c-0.24,0.22-0.47,0.44-0.72,0.65c-1.09,0.97-2.24,1.86-3.61,2.38c-1.65,0.63-3.28,0-4.12-1.52c-0.2-0.36-0.23-0.6,0.15-0.89
				c0.85-0.64,1.65-1.34,2.48-2.01c0.33-0.27,0.61-0.56,0.83-0.93c1.12-1.84,0.94-3.69-0.6-5.19c-0.9-0.88-1.87-1.68-2.86-2.46
				c-0.47-0.37-0.68-0.75-0.69-1.37c-0.08-3.26-0.32-6.5-0.93-9.71c-0.27-1.42-0.61-2.83-1.09-4.2c-0.19-0.52-0.39-0.61-0.94-0.5
				c-0.49,0.1-0.27,0.45-0.24,0.69c0.27,2.6,0.58,5.19,0.85,7.79c0.17,1.66,0.29,3.32,0.44,5.16c-1.78-1.37-3.44-2.65-5.13-3.95
				c-0.16,0.34-0.07,0.6-0.11,0.85c-0.11,0.7,0.16,1.19,0.7,1.66c1.44,1.24,2.83,2.55,4.24,3.82c0.3,0.27,0.5,0.52,0.52,0.97
				c0.11,2.45,0.22,4.9,0.19,7.35c-0.01,0.46-0.13,0.77-0.51,1.05c-1.62,1.17-3.23,2.36-4.84,3.54c-0.37,0.27-0.76,0.48-1.19,0.62
				c-1.51,0.48-2.8-0.35-2.97-1.93c-0.05-0.45-0.1-0.9-0.14-1.35c-0.06-0.63,0.08-1.17,0.46-1.71c0.85-1.25,1.35-2.63,1.24-4.18
				c-0.08-1.04-0.51-1.84-1.52-2.27c-0.77-0.33-1.55-0.6-2.4-0.66c-0.67-0.04-1.34-0.2-2-0.34c-0.82-0.17-1.15-0.63-1-1.44
				c0.09-0.54,0.31-1.05,0.59-1.53c1.08-1.86,2.52-3.42,4.04-4.91c0.09-0.09,0.2-0.16,0.31-0.23c0.36-0.23,0.65-0.19,0.89,0.19
				c0.2,0.33,0.41,0.65,0.6,0.95c0.23-0.03,0.32-0.17,0.41-0.31c0.75-1.15,0.26-3.36-0.34-4.24c-0.23-0.34-0.57-0.36-0.95-0.25
				c-0.64,0.18-1.17,0.56-1.62,1.02c-2.51,2.53-4.5,5.38-5.39,8.9c-0.26,1.01-0.34,2.03-0.11,3.06c0.2,0.9,0.66,1.58,1.51,2
				c0.99,0.49,2.04,0.8,3.12,0.99c0.62,0.11,1.15,0.4,1.73,0.6c0.31,0.11,0.3,0.3,0.11,0.51c-0.19,0.22-0.38,0.44-0.59,0.64
				c-1.01,0.95-2.12,1.79-3.26,2.57c-2.34,1.6-4.88,2.73-7.69,3.2c-3.35,0.55-6.34-1.42-7.13-4.7c-0.08-0.31-0.14-0.63-0.19-0.95
				c-0.33-1.82-0.2-3.66-0.16-5.5c-0.14-0.32,0.1-0.7-0.19-0.99c0,0,0,0,0,0c-0.41,0.99-0.68,2.02-0.89,3.05
				c-0.62,3.14-0.53,6.2,1.19,9.06C152.28,64.78,153.59,65.78,155.29,66.3z M181.83,52.75c0.27-0.14,0.39,0.13,0.54,0.26
				c0.53,0.47,1.08,0.93,1.56,1.44c0.76,0.8,0.71,1.53-0.11,2.25c-0.34,0.3-0.7,0.56-1.06,0.84c-0.25,0.19-0.51,0.38-0.92,0.68
				C181.83,56.28,181.83,54.52,181.83,52.75z"/>
		</g>
		<g>
			<path class="st0" d="M189.04,44.6c4.36-1.98,8.73-3.96,13.09-5.94c0.84-0.38,0.82-0.38,0.6-1.28c-0.11-0.43-0.26-0.55-0.65-0.33
				c-0.11,0.06-0.24,0.1-0.35,0.16c-4.43,2.07-8.86,4.14-13.28,6.22c-0.22,0.11-0.51,0.14-0.63,0.43c0.15,0.34,0.25,0.71,0.53,1.04
				C188.58,44.8,188.81,44.71,189.04,44.6z"/>
		</g>
		<g>
			<path class="st0" d="M193.2,53.69c0.43,0.36,0.69,1.11,1.22,1.11c0.47,0,0.78-0.68,1.19-1.04c0.2-0.18,0.35-0.5,0.71-0.33
				c0.37,0.55,0.86,1,1.35,1.55c0.52-0.52,0.99-0.99,1.46-1.46c0.2-0.19,0.21-0.37,0.03-0.58c-0.52-0.62-1.04-1.24-1.59-1.91
				c-0.48,0.7-0.97,1.25-1.29,1.91c0,0,0,0,0,0c0,0,0,0,0,0c-0.26,0.17-0.39,0-0.54-0.18c-0.46-0.57-0.93-1.13-1.44-1.74
				c-0.41,0.58-0.75,1.12-1.15,1.61C192.83,53.04,192.79,53.34,193.2,53.69z"/>
		</g>
		<g>
			<path class="st0" d="M195.8,50.74c0.59-0.58,1.14-1.11,1.73-1.7c-0.57-0.69-1.15-1.39-1.78-2.16c-0.49,0.69-0.92,1.28-1.34,1.88
				c-0.11,0.16-0.2,0.32-0.01,0.5C194.89,49.75,195.28,50.34,195.8,50.74z"/>
		</g>
		<g>
			<path class="st0" d="M151.23,52.1c0.22-0.43,0.14-0.91,0.21-1.37c-0.07-0.12-0.03-0.3-0.2-0.37l0,0c0,0,0,0,0,0
				c-0.07,0.25-0.13,0.5-0.2,0.75c0,0,0,0,0,0C151.34,51.4,151.09,51.79,151.23,52.1z"/>
		</g>
		<g>
			<path class="st0" d="M151.44,50.73c0.18-0.27,0.22-0.54,0.06-0.98c-0.12,0.28-0.27,0.4-0.26,0.61l0,0
				C151.41,50.43,151.37,50.61,151.44,50.73z"/>
		</g>
		<g>
			<path class="st0" d="M191.25,59.95c-0.19-0.15-0.28,0.09-0.36,0.25c0,0,0,0,0,0c0.08,0.07,0.16,0.14,0.23,0.21
				C191.29,60.28,191.4,60.07,191.25,59.95z"/>
		</g>
		<g>
			<path class="st0" d="M169.96,60.56c-0.06-0.14-0.13-0.05-0.17,0.05c0.01,0.13,0.02,0.25,0.03,0.38v0
				C169.95,60.87,170.03,60.72,169.96,60.56z"/>
		</g>
	</g>
	<g>
		<g>
			<path class="st0" d="M296.63,97.36c-0.05-0.44-0.46-0.23-0.71-0.24c-1.03-0.02-2.04,0.02-3.03-0.42
				c-0.56-0.25-1.22-0.17-1.82-0.07c-1.62,0.27-2.81,1.14-3.27,2.76c-0.34,1.19-0.29,2.4,0.64,3.35c0.91,0.93,2.04,0.97,3.24,0.66
				c0.19-0.05,0.37-0.29,0.63-0.07c-0.24,0.47-0.14,0.99-0.2,1.53c-0.3-0.03-0.55-0.07-0.8-0.08c-1.2-0.07-2.39,0.05-3.5,0.53
				c-0.79,0.34-1.44,0.87-1.67,1.76c-0.32,1.25,0.24,2.32,1.57,2.83c1.73,0.67,3.48,0.62,5.17-0.18c1.85-0.88,2.72-2.95,1.54-4.76
				c-0.74-1.15-0.6-2.18,0.1-3.23c0.34-0.52,0.63-1.09,0.64-1.7c0-0.8,0.02-1.44,1.06-1.59C296.68,98.37,296.68,97.77,296.63,97.36z
				 M292.68,107.25c-0.13,0.41-0.38,0.74-0.76,0.96c-0.89,0.52-1.82,0.54-2.78,0.26c-0.44-0.13-0.7-0.44-0.74-0.91
				c-0.03-0.47,0.2-0.8,0.6-1.01c0.61-0.33,1.29-0.36,2.03-0.39c0.29,0.03,0.64,0.05,0.99,0.09
				C292.72,106.33,292.89,106.58,292.68,107.25z M292.95,99.87c-0.02,0.66-0.23,1.25-0.7,1.74c-0.42,0.44-0.95,0.52-1.51,0.39
				c-0.58-0.14-0.78-0.63-0.87-1.15c-0.1-0.62,0.04-1.22,0.35-1.76c0.41-0.71,1.16-1.01,1.89-0.77
				C292.71,98.51,292.97,99,292.95,99.87z"/>
		</g>
		<g>
			<path class="st0" d="M306.66,96.84c-0.69,0.3-1.24,0.8-1.74,1.35c-0.13,0.15-0.19,0.43-0.49,0.37c0-0.36-0.01-0.71,0-1.06
				c0.03-0.48-0.21-0.69-0.67-0.76c-1.26-0.19-1.38-0.09-1.53,1.23c-0.4,3.45-0.83,6.9-1.24,10.35c-0.26,2.22-0.5,1.72,1.62,1.8
				c0.41,0.02,0.55-0.14,0.6-0.55c0.11-1.09,0.27-2.17,0.41-3.33c2.4,1.23,4.28,0.73,5.78-1.49c0.36-0.54,0.65-1.11,0.86-1.72
				c0.47-1.4,0.64-2.82,0.28-4.28C310.09,96.88,308.42,96.06,306.66,96.84z M307.07,104.23c-0.72,0.86-1.65,1.08-2.59,0.67
				c-0.4-0.18-0.65-0.4-0.59-0.95c0.14-1.35,0.33-2.68,1.09-3.84c0.34-0.51,0.69-1.01,1.22-1.34c0.85-0.53,1.69-0.22,1.95,0.74
				c0.1,0.37,0.1,0.76,0.12,0.95C308.25,101.97,307.94,103.2,307.07,104.23z"/>
		</g>
		<g>
			<path class="st0" d="M321.14,96.75c-0.54,0-1.08,0.03-1.62-0.01c-0.57-0.04-0.97,0.17-1.33,0.61c-0.71,0.87-1.46,1.71-2.21,2.56
				c-0.17,0.19-0.35,0.38-0.55,0.53c-0.12,0.09-0.3,0.13-0.46,0.05c-0.19-0.1-0.12-0.27-0.1-0.42c0.28-2.2,0.54-4.41,0.83-6.61
				c0.17-1.28,0.18-1.27-1.07-1.27c-1.24,0-1.22,0-1.37,1.22c-0.36,3.04-0.74,6.07-1.11,9.11c-0.15,1.25-0.29,2.49-0.45,3.74
				c-0.06,0.42,0.08,0.59,0.51,0.56c0.38-0.03,0.78-0.04,1.16,0c0.55,0.06,0.73-0.19,0.78-0.69c0.12-1.15,0.27-2.3,0.42-3.45
				c0.02-0.17-0.04-0.41,0.23-0.46c0.27-0.05,0.52-0.01,0.68,0.24c0.12,0.19,0.22,0.39,0.32,0.59c0.53,1.03,1.06,2.06,1.58,3.09
				c0.17,0.32,0.35,0.64,0.76,0.65c0.69,0.02,1.37,0,2.21,0c-1.03-2.01-1.97-3.86-2.89-5.66c1.27-1.42,2.51-2.81,3.75-4.2
				C321.19,96.88,321.17,96.82,321.14,96.75z"/>
		</g>
		<g>
			<path class="st0" d="M275.46,96.58c-1.56-0.03-2.82,0.59-3.82,1.74c-1.35,1.55-1.79,3.41-1.5,5.41c0.31,2.07,1.84,3.26,3.93,3.21
				c1.25-0.03,2.32-0.5,3.21-1.36c1.32-1.27,1.93-2.86,1.94-4.7c-0.01-0.31-0.01-0.63-0.05-0.95
				C278.94,97.94,277.47,96.62,275.46,96.58z M275.78,104.2c-0.28,0.4-0.68,0.68-1.17,0.81c-0.91,0.25-1.72-0.17-1.96-1.08
				c-0.12-0.43-0.13-0.89-0.19-1.34c0.08-1.11,0.27-2.19,0.92-3.12c0.43-0.61,0.98-1.01,1.77-1c0.74,0.01,1.28,0.34,1.45,1.04
				C277.03,101.18,276.79,102.77,275.78,104.2z"/>
		</g>
		<g>
			<path class="st0" d="M286.57,99.02c0.21-0.2,0.14-0.55,0.2-0.83c0.06-0.32,0.11-0.64,0.19-0.95c0.08-0.33-0.06-0.47-0.36-0.54
				c-0.65-0.14-1.2,0.07-1.72,0.45c-0.55,0.4-0.92,0.97-1.46,1.7c0-0.57,0.01-0.92,0-1.27c-0.02-0.64-0.15-0.78-0.8-0.84
				c-0.19-0.02-0.39,0.01-0.58-0.01c-0.52-0.07-0.7,0.13-0.77,0.68c-0.33,2.95-0.72,5.89-1.08,8.83c-0.02,0.18-0.11,0.38,0.16,0.59
				c0.44,0,0.96,0.01,1.47,0c0.72-0.01,0.72-0.01,0.81-0.75c0.14-1.12,0.26-2.24,0.4-3.36c0.13-1,0.45-1.95,1.02-2.79
				c0.4-0.59,0.95-0.95,1.69-0.97C286.03,98.95,286.32,99.25,286.57,99.02z"/>
		</g>
		<g>
			<path class="st0" d="M267.04,103.97c-0.81,0.01-1.45,0.64-1.46,1.46c-0.02,0.84,0.56,1.47,1.4,1.51
				c0.87,0.04,1.56-0.59,1.57-1.44C268.56,104.65,267.88,103.96,267.04,103.97z"/>
		</g>
		<g>
			<path class="st0" d="M298.13,103.97c-0.86-0.03-1.54,0.64-1.54,1.51c0,0.83,0.64,1.46,1.48,1.46c0.85,0,1.48-0.61,1.49-1.45
				C299.57,104.67,298.94,104,298.13,103.97z"/>
		</g>
		<g>
			<g>
				<path class="st0" d="M266.15,91.44c0.06-0.16-0.01-0.32-0.18-0.4c-0.14-0.06-0.26-0.01-0.34,0.09
					c-0.12,0.15-0.22,0.31-0.32,0.48c-0.81,1.28-1.6,2.58-2.42,3.85c-2.43,3.73-4.92,7.42-7.86,10.78
					c-1.08,1.24-2.23,2.42-3.57,3.39c-0.63,0.45-1.3,0.84-2.07,1.02c-1.56,0.36-2.76-0.47-2.96-2.06c-0.1-0.75,0-1.48,0.16-2.21
					c0.45-2.03,1.33-3.9,2.29-5.72c1.94-3.68,3.91-7.34,5.86-11.01c1.98-3.73,3.95-7.46,5.92-11.19c-0.1-0.2-0.3-0.21-0.48-0.27
					c0,0,0,0,0,0c0,0,0,0,0,0c-1.86,0.19-3.72,0.5-5.56-0.08c-0.3-0.09-0.4,0.11-0.51,0.31c-0.36,0.69-0.7,1.38-1.06,2.06
					c-2.52,4.79-4.81,9.69-7.76,14.25c-2.5,3.84-4.96,7.7-7.92,11.21c-1.15,1.36-2.36,2.65-3.81,3.7c-0.66,0.48-1.36,0.87-2.16,1.04
					c-1.3,0.28-2.31-0.4-2.55-1.71c-0.09-0.51-0.11-1.02-0.03-1.54c0.22-1.42,0.75-2.73,1.29-4.04c1.54-3.73,3.38-7.31,5.27-10.87
					c7.5-14.15,15.26-28.16,22.95-42.21c0.15-0.28,0.39-0.52,0.39-0.87c-0.31-0.15-0.64-0.07-0.94-0.03
					c-1.78,0.24-3.54,0.25-5.26-0.33c-0.28-0.09-0.42-0.01-0.54,0.23c-0.1,0.2-0.2,0.4-0.31,0.6c-5.8,11.11-11.6,22.22-17.4,33.33
					c-0.05,0.25-0.13,0.47-0.36,0.61c0.01,0.1,0.01,0.23-0.1,0.24c-0.1,0-0.1-0.13-0.08-0.21c0.02-0.07,0.07-0.13,0.11-0.2
					c0.01-0.03,0.02-0.05,0.03-0.05c0.01-0.21,0.01-0.42,0.2-0.57c0.07-0.64,0.23-1.27,0.22-1.92c-0.03-2.13-0.88-3.73-3.73-3.54
					c-1.84,0.12-3.53,0.72-5.17,1.49c-3.37,1.59-6.41,3.72-9.3,6.05c-2.73,2.2-5.14,4.71-6.87,7.79c-0.82,1.46-1.71,2.88-2.64,4.28
					c-2.46,3.68-5.06,7.24-8.12,10.45c-0.89,0.93-1.83,1.83-2.94,2.5c-2.05,1.25-3.57,0.42-3.65-1.96
					c-0.04-1.19,0.31-2.29,0.69-3.39c0.93-2.69,2.15-5.25,3.47-7.76c3.14-6,6.31-11.97,9.46-17.96c0.16-0.3,0.4-0.57,0.4-0.94
					c-0.14-0.08-0.26-0.01-0.39,0.01c-1.79,0.3-3.59,0.51-5.37,0.04c-0.5-0.13-0.69,0.01-0.87,0.43c-0.58,1.29-1.19,2.57-1.78,3.86
					c-0.01,0.2-0.1,0.35-0.37,0.66c0-0.53-0.02-0.89,0.19-1.25c0,0,0,0,0,0c0-0.32,0.01-0.65,0-0.97c-0.08-2.32-1.23-3.38-3.57-3.32
					c-1.44,0.04-2.79,0.44-4.12,0.95c-2.2,0.85-4.23,2.04-6.21,3.31c-3.44,2.2-6.6,4.73-9.2,7.92c-1.23,1.51-2.1,3.24-3.1,4.89
					c-2.32,3.8-4.9,7.43-7.79,10.82c-1.19,1.4-2.42,2.77-3.86,3.93c-0.66,0.53-1.34,1.02-2.17,1.24c-1.04,0.28-1.97-0.21-2.3-1.23
					c-0.22-0.68-0.3-1.38-0.18-2.1c0.14-0.83,0.35-1.64,0.62-2.43c0.79-2.29,1.78-4.49,2.9-6.64c3.32-6.37,6.68-12.72,10.02-19.09
					c0.17-0.33,0.41-0.64,0.47-1.01c-0.16-0.1-0.28-0.04-0.41-0.02c-1.79,0.31-3.59,0.52-5.37,0.04c-0.51-0.14-0.68,0.02-0.87,0.43
					c-0.6,1.35-1.23,2.7-1.85,4.04c-0.01,0.19-0.1,0.34-0.23,0.48c-0.11-0.32-0.11-0.32,0.03-0.67c0,0,0,0,0,0
					c0.02-0.42,0.06-0.84,0.07-1.26c0.02-2.61-1.15-3.73-3.73-3.6c-2.04,0.1-3.89,0.83-5.69,1.72c-3.66,1.81-7.03,4.06-10.09,6.75
					c-2.12,1.86-3.96,3.96-5.43,6.38c-1.04,1.71-2.08,3.41-3.16,5.09c-2.22,3.44-4.52,6.83-7.3,9.86c-0.83,0.9-1.71,1.75-2.73,2.44
					c-0.54,0.37-1.1,0.67-1.74,0.82c-1.45,0.34-2.59-0.46-2.74-1.93c-0.06-0.55-0.02-1.09,0.14-1.62c0.33-1.12,0.81-2.17,1.31-3.22
					c1.22-2.52,2.65-4.94,4.05-7.36c1.47-2.54,2.81-5.14,3.68-7.96c0.46-1.5,0.65-3.02,0.5-4.58c-0.18-1.85-0.83-3.5-2.1-4.88
					c-1.39-1.51-3.19-1.92-5.11-1.18c-0.76,0.29-1.44,0.71-2.09,1.19c-1.54,1.14-2.84,2.52-4.08,3.97c-1.61,1.89-3,3.95-4.43,5.97
					c-0.12,0.37-0.37,0.66-0.59,0.96v0c-0.3,0.47-0.47,1.02-0.95,1.36l0,0c0.02,0.06,0.02,0.13-0.01,0.19
					c-0.13,0.25-0.27,0.51-0.4,0.76c-0.19,0.3-0.38,0.6-0.57,0.9c-0.07-0.4,0.04-0.69,0.34-0.89c0,0,0,0,0,0
					c0.09-0.29,0.16-0.58,0.42-0.77c0,0,0,0,0,0c0.02-0.11,0.06-0.21,0.2-0.19l0,0c0.07-0.62,0.44-1.09,0.75-1.6
					c0.15-0.4,0.32-0.79,0.61-1.11l0,0c0.17-0.35,0.33-0.7,0.51-1.04c6.53-12.55,13.38-24.93,20.11-37.38
					c0.24-0.45,0.48-0.89,0.72-1.34c-0.11-0.05-0.14-0.08-0.16-0.07c-2.02,0.47-4.06,0.74-6.11,0.19c-0.22-0.06-0.38,0.02-0.48,0.22
					c-0.15,0.29-0.3,0.57-0.45,0.86c-2.73,5.3-5.46,10.6-8.19,15.9c-3.41,6.62-6.91,13.19-10.21,19.86
					c-4.06,8.2-7.96,16.48-11.93,24.73c-0.1,0.21-0.27,0.41-0.22,0.75c1.81-0.39,3.57-0.53,5.32-0.06c0.27,0.07,0.42-0.05,0.53-0.29
					c0.16-0.35,0.33-0.7,0.5-1.04c2.64-5.35,5.33-10.67,8.3-15.84c2.28-3.98,4.7-7.86,7.78-11.29c1.08-1.2,2.22-2.35,3.55-3.27
					c0.75-0.52,1.55-0.93,2.47-1.05c1.43-0.19,2.38,0.6,2.46,2.05c0.02,0.36-0.04,0.7-0.14,1.05c-0.23,0.81-0.58,1.57-0.94,2.33
					c-1.5,3.15-3.26,6.15-5.03,9.15c-1.18,2-2.27,4.05-3.08,6.23c-0.69,1.86-1.18,3.75-1.05,5.76c0.12,1.82,0.67,3.47,1.89,4.87
					c1.35,1.54,3.82,2.38,6.05,1.06c0.53-0.31,1.04-0.64,1.52-1.03c1.32-1.05,2.47-2.27,3.56-3.55c2.27-2.65,4.24-5.52,6.16-8.43
					c0.04-0.15,0.09-0.35,0.26-0.31c0.2,0.04,0.11,0.25,0.08,0.38c-0.02,0.11-0.1,0.22-0.15,0.32c0,0,0,0,0,0
					c-0.3,1.85-0.46,3.7-0.22,5.57c0.3,2.33,1.07,4.44,2.76,6.13c1.64,1.65,3.83,2.02,5.95,1.06c0.77-0.35,1.45-0.82,2.09-1.37
					c1.18-1.02,2.15-2.21,3.1-3.44c1.82-2.38,3.43-4.9,5.08-7.39c0.07-0.13,0.13-0.26,0.2-0.38l0,0l0,0
					c0.07-0.13,0.13-0.25,0.2-0.38l0,0c0.05-0.14,0.13-0.33,0.28-0.27c0.14,0.06,0.03,0.19-0.07,0.26c0,0,0,0,0,0
					c-0.01,0.15-0.02,0.3-0.16,0.39c0,0,0,0,0,0c-0.02,0.22-0.05,0.43-0.23,0.58c-0.42,1.39-0.79,2.79-0.89,4.24
					c-0.17,2.35,0.19,4.57,1.72,6.47c1.47,1.83,3.74,2.29,5.81,1.21c0.57-0.3,1.1-0.67,1.61-1.07c1.12-0.89,2.1-1.91,3.03-2.98
					c2.25-2.58,4.17-5.41,6.19-8.17c0.2-0.27,0.34-0.61,0.72-0.83c-0.02,0.23-0.01,0.39-0.04,0.55c-0.39,1.95-0.47,3.9-0.16,5.87
					c0.34,2.19,1.15,4.16,2.77,5.73c1.29,1.24,2.83,1.75,4.61,1.4c1.45-0.28,2.6-1.09,3.66-2.05c1.18-1.07,2.15-2.31,3.1-3.58
					c1.65-2.19,3.12-4.5,4.64-6.78c0.06-0.3,0.27-0.51,0.41-0.76c0,0,0,0,0,0c0,0,0,0,0,0c0.05-0.14,0.11-0.34,0.28-0.3
					c0.14,0.04,0.08,0.2-0.04,0.28c-0.09,0.41-0.19,0.82-0.44,1.17c-0.53,1.83-0.91,3.68-0.78,5.61c0.13,1.81,0.64,3.48,1.86,4.87
					c1.51,1.72,3.66,2.12,5.68,1.06c0.72-0.37,1.36-0.85,1.98-1.37c1.61-1.36,2.98-2.93,4.25-4.6c1.69-2.23,3.33-4.5,5-6.75
					c0,0,0,0,0,0c0.07-0.13,0.13-0.26,0.2-0.39c0,0,0,0,0,0c0.04-0.15,0.14-0.3,0.28-0.24c0.15,0.06,0.04,0.18-0.06,0.25
					c-0.02,0.22,0,0.45-0.18,0.62c0,0,0,0,0,0c-0.04,0.35-0.09,0.7-0.13,1.05c-0.24,2.1-0.25,4.19,0.33,6.23
					c0.52,1.83,1.39,3.47,2.92,4.67c1.72,1.35,3.63,1.45,5.48,0.32c0.69-0.42,1.31-0.93,1.91-1.48c1.11-1.03,2.11-2.17,3.07-3.35
					c1.97-2.43,3.69-5.04,5.4-7.66l0,0l0,0c0.06-0.13,0.12-0.26,0.19-0.39h0c0,0,0,0,0,0c0.09-0.26,0.26-0.46,0.53-0.73
					c-0.01,0.44-0.13,0.7-0.33,0.94c-0.03,0.15-0.04,0.3-0.19,0.39v0c-0.05,0.18-0.1,0.37-0.16,0.55c-0.7,2.1-1.09,4.24-0.85,6.46
					c0.2,1.85,0.82,3.51,2.2,4.81c1.39,1.31,3.28,1.59,5.01,0.77c0.64-0.31,1.23-0.7,1.78-1.15c1.68-1.33,3.08-2.93,4.43-4.57
					c1.86-2.27,3.49-4.71,5.17-7.11c0-0.17,0.13-0.26,0.2-0.38l0,0h0c0.07-0.13,0.13-0.26,0.2-0.38l0,0l0,0
					c0.05-0.14,0.12-0.34,0.28-0.28c0.14,0.05,0.05,0.2-0.07,0.27c0,0,0,0,0,0c-0.02,0.15-0.02,0.3-0.18,0.39c0,0,0,0,0,0
					c-0.03,0.15-0.03,0.31-0.19,0.39v0c-0.06,0.18-0.11,0.37-0.18,0.55c-0.61,1.6-1.19,3.21-1.33,4.93
					c-0.21,2.5,0.38,4.76,2.31,6.49c1.55,1.39,3.35,1.7,5.3,0.89c0.78-0.32,1.47-0.79,2.14-1.31c1.41-1.09,2.64-2.37,3.79-3.72
					c3.77-4.4,6.77-9.34,9.85-14.22C265.99,91.79,266.09,91.62,266.15,91.44z M145.64,105.84c-0.99,1.23-2.05,2.4-3.27,3.42
					c-0.55,0.46-1.12,0.88-1.77,1.16c-1.76,0.77-3.41-0.01-3.95-1.85c-0.2-0.69-0.18-1.4-0.2-1.99c0.05-2.34,0.69-4.43,1.52-6.47
					c1.31-3.21,3.1-6.16,5.06-9c2.15-3.11,4.42-6.12,7.12-8.77c1.04-1.02,2.14-1.96,3.39-2.72c0.94-0.58,1.95-1,3.06-1.13
					c1.45-0.16,2.37,0.48,2.66,1.91c0.21,1.04,0.04,2.05-0.23,3.06c-0.54,1.97-1.39,3.82-2.35,5.6
					C153.5,94.98,149.85,100.6,145.64,105.84z M182.4,106.25c-0.82,1-1.71,1.93-2.68,2.79c-0.61,0.54-1.24,1.03-1.99,1.36
					c-1.82,0.82-3.58-0.03-4.03-1.97c-0.13-0.56-0.22-1.14-0.21-1.48c0.1-2.59,0.73-4.82,1.62-6.97c1.19-2.87,2.76-5.54,4.49-8.1
					c2.28-3.37,4.7-6.63,7.6-9.5c1.11-1.09,2.29-2.09,3.63-2.87c0.87-0.51,1.79-0.87,2.8-1c1.51-0.18,2.41,0.48,2.71,1.95
					c0.18,0.91,0.06,1.8-0.15,2.68c-0.43,1.83-1.18,3.55-2.05,5.2C190.83,94.69,186.94,100.68,182.4,106.25z M219.72,105.93
					c-0.97,1.21-2.02,2.35-3.22,3.33c-0.58,0.47-1.18,0.9-1.87,1.19c-1.72,0.71-3.28-0.05-3.77-1.84c-0.19-0.69-0.25-1.39-0.22-2.11
					c0.04-2.06,0.57-4.01,1.29-5.91c1.19-3.12,2.85-5.99,4.7-8.75c2.28-3.41,4.7-6.71,7.62-9.6c1.06-1.04,2.18-2,3.47-2.76
					c0.87-0.51,1.79-0.88,2.8-0.99c1.5-0.17,2.47,0.55,2.81,2.02c0.22,0.95,0.1,1.86-0.13,2.77c-0.42,1.66-1.11,3.23-1.9,4.74
					C228,94.35,224.19,100.35,219.72,105.93z"/>
			</g>
			<g>
				<path class="st0" d="M99.97,79.08c1.53-5,2.73-10.07,3.81-15.18c0.88-4.16,1.72-8.33,2.72-12.46c0.18-0.73,0.5-1.25,1.14-1.68
					c2.44-1.64,4.75-3.45,6.95-5.39c2.64-2.33,5.14-4.79,7.28-7.61c0.84-1.11,1.61-2.26,2.08-3.58c0.25-0.71,0.44-1.43,0.28-2.18
					c-0.12-0.59-0.31-1.17-0.46-1.75c0,0,0,0,0,0c-0.12,0.14,0.1,0.63-0.4,0.37c-0.8-0.42-1.65-0.5-2.51-0.29
					c-0.29,0.07-0.39-0.12-0.56-0.23c0,0,0,0,0,0c0,0.23-0.13,0.33-0.34,0.4c-2.49,0.83-4.4,2.5-6.19,4.32
					c-2.56,2.61-4.71,5.54-6.64,8.64c-0.18,0.29-0.25,0.69-0.68,0.75c0,0,0,0,0,0c0,0,0,0,0,0c-0.01,0.01-0.01,0.03-0.02,0.04
					c0.01,0.04,0.03,0.07,0.06,0.11c-0.09,0.21-0.15,0.43-0.26,0.62c-1.44,2.49-2.67,5.07-3.76,7.73c-0.17,0.41-0.43,0.7-0.78,0.94
					c-4.17,2.87-8.23,5.89-12.27,8.94c-0.21,0.16-0.39,0.41-0.75,0.41c0.28-1.44,0.56-2.83,0.68-4.24c0.27-2.97,0.34-5.93-0.49-8.83
					c-1.43-4.98-4.54-8.32-9.65-9.56c-2.87-0.7-5.77-0.47-8.65,0.02c-4.05,0.69-7.83,2.15-11.34,4.25
					c-9.77,5.85-17.41,13.76-22.74,23.85c-4.07,7.72-5.9,15.91-4.92,24.65c0.38,3.39,1.25,6.64,2.88,9.66
					c1.72,3.19,4.15,5.73,7.2,7.68c0.64,0.41,0.65,0.42,0.33,1.11c-0.45,1-0.84,2.02-1.2,3.06c-1.76,5.06-1.43,10.01,0.78,14.87
					c0.27,0.59,0.55,1.17,0.95,1.68c0.2,0.26,0.41,0.5,0.71,0.65c0.27,0.13,0.56,0.23,0.81,0c0.26-0.23,0.19-0.54,0.09-0.81
					c-0.11-0.26-0.29-0.5-0.45-0.74c-1.93-2.91-2.89-6.1-2.79-9.59c0.1-3.11,1.08-6,2.29-8.83c0.19-0.45,0.44-0.24,0.69-0.13
					c1.56,0.72,3.19,1.22,4.87,1.53c3.4,0.64,6.81,0.53,10.21,0.13c6.7-0.78,12.88-3.05,18.6-6.62c6.14-3.83,11.35-8.69,15.87-14.32
					C96.39,87.77,98.57,83.64,99.97,79.08z M107.65,47.6c1.56-4.52,3.76-8.69,6.79-12.4c1.15-1.4,2.38-2.71,3.9-3.73
					c0.89-0.6,1.85-1.04,2.93-1.18c0.32-0.04,0.64-0.05,0.96,0.02c0.62,0.15,0.88,0.42,0.97,1.05c0.08,0.55-0.02,1.09-0.2,1.61
					c-0.38,1.11-1.01,2.09-1.7,3.02c-1.91,2.57-4.18,4.82-6.57,6.94c-2.15,1.91-4.41,3.67-6.75,5.34c-0.18,0.13-0.33,0.31-0.58,0.31
					C107.35,48.23,107.54,47.92,107.65,47.6z M43.22,108c-0.4,0.72-0.41,0.72-1.11,0.2c-2.97-2.19-4.85-5.13-5.88-8.63
					c-0.71-2.43-0.99-4.92-1-7.45c-0.04-8.73,2.2-16.89,6.3-24.55c3.76-7.02,8.52-13.29,14.41-18.68c3.36-3.07,7.08-5.59,11.37-7.19
					c2.74-1.03,5.58-1.55,8.51-1.57c7.57-0.04,11.62,5.28,12.49,10.76c0.47,2.97,0.24,5.91-0.29,8.85
					c-0.17,0.95-0.41,1.89-0.58,2.84c-0.09,0.52-0.36,0.84-0.77,1.15c-4.99,3.72-9.89,7.56-14.64,11.58
					C66.13,80.3,60.44,85.49,55.34,91.3c-0.38,0.44-0.77,0.87-1.13,1.33c-0.25,0.32-0.45,0.38-0.76,0.04
					c-1.79-1.92-2.83-4.14-2.8-6.79c0.02-1.81,0.52-3.5,1.4-5.07c0.24-0.42,0.5-0.83,0.92-1.1c0.17-0.11,0.36-0.19,0.54-0.09
					c0.2,0.11,0.16,0.32,0.14,0.52c-0.04,0.36-0.16,0.69-0.31,1.01c-0.36,0.76-0.41,1.55-0.3,2.37c0.16,1.24,0.94,1.96,2.18,2.05
					c2.4,0.17,4.6-1.82,4.77-4.34c0.03-0.51,0.03-1.03-0.09-1.54c-0.36-1.65-1.32-2.5-3.01-2.61c-1.7-0.1-3.18,0.42-4.41,1.6
					c-2.31,2.22-3.07,5-2.84,8.11c0.2,2.68,1.29,4.96,3.13,6.9c0.09,0.09,0.16,0.2,0.26,0.31c-0.97,1.22-1.94,2.43-2.89,3.65
					C47.6,100.93,45.24,104.36,43.22,108z M86.43,65.87c-2.69,8.17-6.86,15.46-12.88,21.64c-2.19,2.25-4.57,4.27-7.37,5.73
					c-2.26,1.18-4.64,1.9-7.22,1.81c-1.5-0.05-3.1-0.55-4.22-1.38c0.38-0.44,0.74-0.88,1.12-1.3c3.99-4.49,8.35-8.6,12.85-12.57
					c5.53-4.89,11.26-9.54,17.1-14.06c0.22-0.17,0.4-0.41,0.71-0.43C86.6,65.52,86.49,65.69,86.43,65.87z M79.9,99.12
					c-4.44,4.6-9.54,8.28-15.57,10.54c-4.26,1.59-8.66,2.24-13.2,1.83c-2.33-0.21-4.56-0.8-6.68-1.81
					c-0.57-0.27-0.58-0.29-0.28-0.84c2.67-4.88,5.81-9.44,9.36-13.73c0.34-0.41,0.61-0.42,1.05-0.21c1.9,0.92,3.9,1.33,6.01,1.1
					c2.51-0.27,4.81-1.15,6.98-2.42c2.69-1.58,5.03-3.6,7.19-5.84c6.3-6.53,10.69-14.17,13.18-22.9c0.13-0.46,0.29-0.88,0.72-1.21
					c4-3.05,8.01-6.1,12.08-9.05c0.1-0.08,0.22-0.14,0.33-0.21c0,0,0,0,0,0v0c0.06-0.07,0.13-0.14,0.19-0.21c0,0,0,0,0,0
					c0.06-0.12,0.16-0.19,0.29-0.11c0.06,0.03,0.03,0.11-0.04,0.14c-0.01,0.16-0.03,0.33-0.19,0.43c-2.61,7.51-4.7,15.21-7.63,22.61
					C90.45,85.37,86.01,92.79,79.9,99.12z"/>
			</g>
			<g>
				<path class="st0" d="M258.19,70.56c0.27,1.12,0.9,1.62,2.04,1.69c0.73,0.04,1.42-0.07,2.04-0.46c1.92-1.21,3-2.95,3.17-5.08
					c-0.02-0.37-0.01-0.6-0.04-0.82c-0.19-1.38-0.98-2.04-2.37-2c-0.76,0.02-1.45,0.29-2.07,0.72c-1.05,0.73-1.86,1.69-2.4,2.85
					C258.09,68.44,257.93,69.48,258.19,70.56z"/>
			</g>
			<g>
				<path class="st0" d="M233.85,83.6c-0.01,0-0.02,0.02-0.03,0.05C233.83,83.63,233.84,83.62,233.85,83.6
					c0.01,0.07,0.02,0.15,0.03,0.22c0,0,0,0,0,0c0.23-0.14,0.31-0.36,0.36-0.61c-0.06-0.06-0.13-0.13-0.19-0.19
					C233.86,83.18,233.87,83.39,233.85,83.6z"/>
			</g>
			<g>
				<path class="st0" d="M260.65,78.44c0.12-0.1,0.24-0.25,0.09-0.36c-0.18-0.13-0.4-0.05-0.57,0.09c0,0,0,0,0,0
					C260.34,78.23,260.55,78.25,260.65,78.44z"/>
			</g>
			<g>
				<path class="st0" d="M107.22,92.34C107.22,92.34,107.22,92.34,107.22,92.34C107.22,92.34,107.22,92.34,107.22,92.34
					c-0.3,0.19-0.41,0.49-0.34,0.89c0.19-0.3,0.38-0.6,0.57-0.9C107.37,92.33,107.3,92.33,107.22,92.34z"/>
			</g>
			<g>
				<path class="st0" d="M226.37,98.18c0.2-0.24,0.31-0.51,0.33-0.94c-0.27,0.28-0.44,0.47-0.53,0.73c0,0,0,0,0,0
					C226.23,98.04,226.3,98.11,226.37,98.18z"/>
			</g>
			<g>
				<path class="st0" d="M107.64,91.56C107.64,91.56,107.64,91.56,107.64,91.56C107.64,91.56,107.64,91.56,107.64,91.56
					c-0.26,0.19-0.33,0.49-0.42,0.77c0,0,0,0,0,0c0.07,0,0.15-0.01,0.22-0.01c0.13-0.25,0.27-0.51,0.4-0.76
					C107.78,91.56,107.71,91.56,107.64,91.56z"/>
			</g>
			<g>
				<path class="st0" d="M233.85,83.6c-0.01,0.02-0.02,0.03-0.03,0.05c-0.04,0.06-0.09,0.13-0.11,0.2
					c-0.03,0.08-0.03,0.22,0.08,0.21c0.1,0,0.1-0.14,0.1-0.24c0,0,0,0,0,0C233.87,83.75,233.86,83.68,233.85,83.6z"/>
			</g>
			<g>
				<path class="st0" d="M244.37,97.57C244.37,97.57,244.37,97.57,244.37,97.57c0.12-0.07,0.21-0.22,0.07-0.27
					c-0.16-0.06-0.23,0.14-0.28,0.28l0,0C244.23,97.57,244.3,97.57,244.37,97.57C244.37,97.57,244.37,97.57,244.37,97.57z"/>
			</g>
			<g>
				<path class="st0" d="M207.19,97.95c0.1-0.07,0.2-0.19,0.06-0.25c-0.14-0.06-0.24,0.09-0.28,0.24c0,0,0,0,0,0
					C207.04,97.94,207.11,97.95,207.19,97.95z"/>
			</g>
			<g>
				<path class="st0" d="M244.19,97.96C244.19,97.96,244.19,97.96,244.19,97.96c0.16-0.08,0.16-0.24,0.18-0.39c0,0,0,0,0,0
					c-0.07,0-0.14,0-0.21,0.01l0,0c-0.07,0.13-0.13,0.26-0.2,0.38h0C244.03,97.96,244.11,97.96,244.19,97.96z"/>
			</g>
			<g>
				<path class="st0" d="M152.2,98.15C152.2,98.15,152.2,98.15,152.2,98.15c0.11-0.07,0.22-0.2,0.07-0.26
					c-0.15-0.06-0.23,0.13-0.28,0.27C152.06,98.15,152.13,98.15,152.2,98.15C152.2,98.15,152.2,98.15,152.2,98.15z"/>
			</g>
			<g>
				<path class="st0" d="M189.26,98.06c-0.16-0.05-0.23,0.15-0.28,0.3c0,0,0,0,0,0c0.08-0.01,0.16-0.01,0.23-0.02
					C189.35,98.25,189.4,98.1,189.26,98.06z"/>
			</g>
			<g>
				<path class="st0" d="M152.04,98.54C152.04,98.54,152.04,98.54,152.04,98.54c0.14-0.09,0.15-0.24,0.16-0.39c0,0,0,0,0,0
					c-0.07,0-0.14,0-0.21,0l0,0c-0.07,0.13-0.13,0.25-0.2,0.38l0,0C151.88,98.54,151.96,98.54,152.04,98.54z"/>
			</g>
		</g>
	</g>
	<g>
		<path class="st0" d="M101.49,54.2c0.07-0.03,0.1-0.11,0.04-0.14c-0.13-0.07-0.22,0-0.29,0.11c0,0,0,0,0,0
			C101.33,54.18,101.41,54.19,101.49,54.2z"/>
	</g>
	<g>
		<g>
			<polygon class="st0" points="105.93,20.69 107.05,22.07 107.85,20.71 107.32,20.15 105.61,20.19 			"/>
		</g>
		<g>
			<path class="st0" d="M106.45,43.21c-2.34-1.3-4.55-2.79-6.57-4.55c-1.07-0.93-2.02-1.97-2.88-3.11
				c-2.05-2.71-2.02-5.52-0.48-8.41c1.18-2.21,3.19-3.14,5.66-2.67c1.57,0.3,3,0.94,4.37,1.73c0.3,0.18,0.61,0.34,0.92,0.51
				c0.65,0.49,0.65,0.49,1.28,0.05c1.21-0.86,2.48-1.6,3.9-2.07c0.8-0.27,1.62-0.42,2.46-0.4c1.62,0.04,2.89,0.76,3.85,2.05
				c0.62,0.83,1.03,1.77,1.36,2.75c0,0,0,0,0,0c0,0,0,0,0,0c0.17,0.11,0.27,0.3,0.56,0.23c0.86-0.21,1.71-0.13,2.51,0.29
				c0.5,0.26,0.28-0.23,0.4-0.37c0,0,0,0,0,0c-0.24-1.98-1.02-3.71-2.38-5.17c-3.75-4-10.56-3.52-12.96,2.21
				c-0.07,0.18-0.11,0.39-0.23,0.52c-0.11,0.12-0.19-0.09-0.3-0.13h0v0c-0.03-0.13-0.04-0.26-0.08-0.37
				c-1.76-4.31-6.51-6.07-10.67-3.95c-4.41,2.24-6.19,8.36-3.72,12.81c0.91,1.64,2.2,2.93,3.7,4.03c2.37,1.73,5.01,2.9,7.79,3.77
				c0.52,0.16,1.02,0.4,1.59,0.38c-0.05-0.03-0.07-0.06-0.06-0.11C106.44,43.24,106.44,43.23,106.45,43.21
				C106.45,43.21,106.45,43.21,106.45,43.21z"/>
		</g>
		<g>
			<path class="st0" d="M108.79,19.33C108.79,19.33,108.79,19.33,108.79,19.33c0,0,0.01,0,0.01,0c0,0,0,0,0,0c0,0,0,0,0,0
				c0.01,0.47,0.53,0.72,0.51,1.19c-0.15,0.26-0.4,0.16-0.61,0.18c-0.22,0.02-0.44,0-0.69,0c0.01-0.58,0.6-0.86,0.61-1.38
				c-0.07-0.05-0.13-0.11-0.2-0.16v0c-0.41,0.36-0.9,0.12-1.35,0.19c-0.01,0.22,0.11,0.39,0.2,0.58c0.02,0.02,0.04,0.04,0.05,0.06
				c0.05,0.05,0.09,0.09,0.14,0.14c-0.05-0.05-0.09-0.09-0.14-0.14c0.04,0.05,0.08,0.1,0.14,0.14c0.09,0.2,0.21,0.39,0.18,0.62
				c0,0,0,0,0,0c0,0.06,0.01,0.11,0.03,0.16v0c0.1,0.07,0.23,0.12,0.3,0.22c0.14,0.2,0.56,0.33,0.28,0.66
				c-0.19,0.22-0.71,0.03-0.98-0.31c-0.24,0.13-0.22,0.36-0.22,0.59c0,0,0,0,0,0c0,0,0,0,0,0c0.24,0.25,0.4,0.58,0.78,0.79
				c0.92-1.05,1.78-2.16,2.63-3.28c0.12-0.16,0.07-0.29-0.11-0.38C109.85,19.5,109.31,19.31,108.79,19.33z"/>
		</g>
		<g>
			<path class="st0" d="M106.14,19.35c0.28,0.01,0.52,0.03,0.55,0.39c-0.06,0.06-0.13,0.13-0.19,0.19c-0.07,0.13-0.13,0.26-0.2,0.39
				c-0.04,0.03-0.08,0.08-0.11,0.12c0.04-0.04,0.08-0.08,0.11-0.12c-0.04,0.04-0.08,0.08-0.11,0.12c-0.02,0.03-0.05,0.05-0.07,0.08
				c0,0.06,0,0.11,0,0.17c0,0,0,0,0,0c0,0,0,0,0,0c0.51,0.13,1.02,0.03,1.53,0.07c0.03-0.24-0.09-0.42-0.18-0.62
				c-0.05-0.04-0.09-0.09-0.14-0.14c-0.02-0.02-0.04-0.04-0.05-0.06c0.02,0.02,0.04,0.04,0.05,0.06c-0.02-0.02-0.04-0.04-0.05-0.06
				c-0.08-0.19-0.21-0.36-0.2-0.58c0-0.06,0-0.13,0-0.19c0,0,0,0,0,0l0,0c-0.39-0.01-0.6-0.27-0.77-0.58
				c-0.46-0.03-0.68,0.34-0.97,0.58C105.55,19.44,105.86,19.34,106.14,19.35z M106.49,19.93c0.06-0.06,0.13-0.13,0.19-0.19
				C106.62,19.8,106.56,19.87,106.49,19.93z"/>
		</g>
		<g>
			<path class="st0" d="M105.97,20.73c-0.01-0.02-0.03-0.03-0.04-0.05C105.94,20.71,105.96,20.72,105.97,20.73z"/>
		</g>
		<g>
			<path class="st0" d="M105.93,20.69c0.06,0,0.12,0,0.18-0.01c0,0,0,0,0,0c0-0.06,0-0.11,0-0.17c0.02-0.03,0.05-0.05,0.07-0.08
				c0.04-0.04,0.07-0.08,0.11-0.12c0.07-0.13,0.13-0.26,0.2-0.39c0.06-0.06,0.13-0.13,0.19-0.19c-0.02-0.35-0.27-0.38-0.55-0.39
				c-0.28-0.01-0.59,0.09-0.81-0.19c-0.23,0.07-0.33,0.22-0.19,0.43C105.39,19.96,105.67,20.32,105.93,20.69z"/>
		</g>
		<g>
			<path class="st0" d="M106.18,20.44c-0.02,0.03-0.05,0.05-0.07,0.08C106.13,20.49,106.16,20.47,106.18,20.44z"/>
		</g>
		<g>
			<path class="st0" d="M107.07,19.16C107.07,19.16,107.07,19.16,107.07,19.16c0,0.06,0,0.13,0,0.19c0.45-0.07,0.94,0.17,1.35-0.19
				v0l0,0c-0.14-0.18-0.28-0.37-0.42-0.55c0,0,0,0,0,0c-0.12-0.01-0.24-0.02-0.36-0.03C107.57,18.88,107.22,18.92,107.07,19.16z"/>
		</g>
		<g>
			<path class="st0" d="M108.79,19.33c0.52-0.02,1.06,0.17,1.56-0.12c-0.29-0.25-0.54-0.56-0.95-0.63
				C109.19,18.83,108.99,19.08,108.79,19.33z"/>
		</g>
		<g>
			<path class="st0" d="M108.43,19.16L108.43,19.16c0.07,0.05,0.13,0.11,0.2,0.16c0.06,0.01,0.12,0.01,0.17,0.01c0,0,0,0,0,0
				c0,0-0.01,0-0.01,0c0,0,0,0,0,0c0.2-0.25,0.4-0.5,0.61-0.75c-0.46,0.01-0.92,0.02-1.39,0.03c0,0,0,0,0,0
				C108.15,18.79,108.29,18.98,108.43,19.16z"/>
		</g>
		<g>
			<path class="st0" d="M107.07,19.16L107.07,19.16c0.14-0.24,0.5-0.28,0.58-0.58c-0.45-0.06-0.9-0.07-1.35,0.01v0
				C106.47,18.89,106.68,19.15,107.07,19.16z"/>
		</g>
		<g>
			<path class="st0" d="M108.71,20.7c0.21-0.02,0.45,0.08,0.61-0.18c0.02-0.47-0.51-0.73-0.51-1.19c0,0,0,0,0,0
				c-0.06,0-0.12,0-0.17-0.01c-0.01,0.53-0.6,0.8-0.61,1.38C108.27,20.71,108.49,20.72,108.71,20.7z"/>
		</g>
		<g>
			<path class="st0" d="M107.27,21.48c0.28,0.34,0.79,0.53,0.98,0.31c0.29-0.33-0.14-0.46-0.28-0.66c-0.07-0.1-0.2-0.15-0.3-0.22
				c0,0,0,0,0,0C107.54,21.1,107.4,21.29,107.27,21.48z"/>
		</g>
		<g>
			<path class="st1" d="M107.32,19.99c0.05,0.05,0.09,0.09,0.14,0.14"/>
		</g>
		<g>
			<path class="st1" d="M107.27,19.93c0.02,0.02,0.04,0.04,0.05,0.06"/>
		</g>
		<g>
			<path class="st1" d="M106.49,19.93c0.06-0.06,0.13-0.13,0.19-0.19"/>
		</g>
		<g>
			<path class="st1" d="M106.18,20.44c-0.02,0.03-0.05,0.05-0.07,0.08"/>
		</g>
		<g>
			<path class="st1" d="M106.18,20.44c0.04-0.04,0.08-0.08,0.11-0.12"/>
		</g>
	</g>
	<g>
		<g>
			<path class="st0" d="M277.73,45.2c-0.01-2.81-2.34-5.12-5.13-5.11c-2.82,0.01-5.07,2.31-5.07,5.14c0.01,2.84,2.27,5.09,5.1,5.09
				C275.45,50.32,277.74,48.02,277.73,45.2z M268.36,45.31c-0.04-2.37,1.87-4.32,4.25-4.33c2.34-0.01,4.25,1.88,4.27,4.21
				c0.02,2.33-1.86,4.25-4.19,4.3C270.38,49.53,268.4,47.62,268.36,45.31z"/>
		</g>
		<g>
			<path class="st0" d="M287.57,49.83c2.66-0.01,4.79-2.13,4.81-4.78c0.02-2.7-2.11-4.88-4.8-4.9c-2.66-0.02-4.87,2.17-4.88,4.84
				C282.7,47.67,284.88,49.84,287.57,49.83z M287.55,40.97c2.2,0,4.01,1.78,4.03,3.98c0.02,2.25-1.78,4.07-4.03,4.07
				c-2.2,0-4.02-1.78-4.05-3.97C283.47,42.83,285.32,40.97,287.55,40.97z"/>
		</g>
		<g>
			<path class="st0" d="M273.02,46.38c0.1,0.3,0.17,0.62,0.25,0.93c0.08,0.32,0.25,0.51,0.61,0.46c0.22-0.03,0.45,0.05,0.69-0.11
				c-0.14-0.84-0.29-1.68-0.86-2.4c0.11-0.1,0.21-0.17,0.29-0.27c0.9-1,0.53-2.16-0.79-2.46c-0.7-0.16-1.4-0.11-2.11-0.03
				c-0.32,0.04-0.43,0.18-0.43,0.5c0.01,1.41,0.02,2.83,0,4.24c-0.01,0.45,0.2,0.52,0.58,0.53c0.43,0.01,0.67-0.08,0.64-0.58
				c-0.03-0.48-0.01-0.96-0.01-1.43C272.73,45.73,272.81,45.78,273.02,46.38z M272.33,43.34c0.58,0.01,0.94,0.27,0.94,0.73
				c-0.01,0.43-0.39,0.74-0.95,0.76c-0.41,0.01-0.44-0.05-0.44-0.77C271.91,43.77,271.73,43.34,272.33,43.34z"/>
		</g>
		<g>
			<path class="st0" d="M287.45,47.69c0.32,0.01,0.65-0.02,0.96-0.07c0.43-0.07,0.59-0.51,0.33-0.84c-0.19-0.24-0.41-0.08-0.62-0.07
				c-0.97,0.07-1.48-0.17-1.78-0.83c-0.57-1.27,0.25-2.41,1.68-2.35c0.06,0.01,0.13,0,0.19,0.02c0.39,0.11,0.61,0,0.66-0.43
				c0.07-0.51-0.29-0.5-0.61-0.53c-0.26-0.03-0.52-0.03-0.77-0.02c-1.51,0.06-2.5,1.1-2.5,2.62
				C284.98,46.7,285.89,47.63,287.45,47.69z"/>
		</g>
	</g>
	<g>
		<g>
			<path class="st0" d="M58.25,122.32h-2.77v7.67h-1.44v-7.67h-2.77v-1.2h6.97V122.32z"/>
		</g>
		<g>
			<path class="st0" d="M60.46,124.45c0.26-0.25,0.54-0.46,0.85-0.61c0.31-0.15,0.67-0.23,1.08-0.23c0.35,0,0.65,0.06,0.91,0.17
				c0.26,0.12,0.48,0.28,0.66,0.49c0.18,0.21,0.31,0.46,0.4,0.75s0.14,0.62,0.14,0.97v4h-1.32v-4c0-0.42-0.1-0.75-0.29-0.99
				c-0.2-0.23-0.49-0.35-0.89-0.35c-0.3,0-0.57,0.07-0.82,0.2c-0.25,0.14-0.49,0.32-0.71,0.55v4.58h-1.32v-9.12h1.32V124.45z"/>
		</g>
		<g>
			<path class="st0" d="M67,126.95c0.02,0.36,0.07,0.67,0.17,0.93c0.09,0.26,0.22,0.48,0.38,0.65s0.35,0.3,0.57,0.39
				c0.22,0.08,0.47,0.13,0.74,0.13c0.26,0,0.48-0.03,0.67-0.09c0.19-0.06,0.35-0.12,0.49-0.2s0.26-0.14,0.36-0.2
				s0.19-0.09,0.27-0.09c0.11,0,0.19,0.04,0.25,0.12l0.38,0.49c-0.16,0.18-0.33,0.34-0.53,0.47s-0.41,0.23-0.63,0.31
				c-0.22,0.08-0.45,0.14-0.68,0.17c-0.23,0.03-0.46,0.05-0.68,0.05c-0.44,0-0.84-0.07-1.21-0.22c-0.37-0.15-0.69-0.36-0.97-0.64
				c-0.27-0.28-0.49-0.63-0.64-1.05c-0.15-0.42-0.23-0.9-0.23-1.45c0-0.44,0.07-0.84,0.21-1.22s0.33-0.71,0.59-0.99
				c0.26-0.28,0.57-0.5,0.94-0.66c0.37-0.16,0.78-0.24,1.25-0.24c0.39,0,0.74,0.06,1.07,0.19c0.33,0.12,0.61,0.31,0.85,0.55
				s0.42,0.54,0.56,0.89c0.13,0.35,0.2,0.75,0.2,1.2c0,0.21-0.02,0.34-0.07,0.41c-0.05,0.07-0.13,0.1-0.25,0.1H67z M70.16,126.14
				c0-0.22-0.03-0.43-0.1-0.62c-0.06-0.19-0.16-0.36-0.28-0.5c-0.12-0.14-0.28-0.25-0.46-0.33c-0.18-0.08-0.39-0.12-0.63-0.12
				c-0.48,0-0.86,0.14-1.13,0.41c-0.27,0.28-0.45,0.66-0.52,1.16H70.16z"/>
		</g>
		<g>
			<path class="st0" d="M85.34,121.12v8.87h-1.27v-6.08c0-0.1,0-0.21,0.01-0.32c0.01-0.12,0.02-0.24,0.03-0.35l-2.85,5.27
				c-0.11,0.22-0.28,0.33-0.51,0.33h-0.2c-0.23,0-0.4-0.11-0.51-0.33l-2.9-5.28c0.01,0.12,0.02,0.24,0.03,0.36s0.01,0.23,0.01,0.33
				v6.08H75.9v-8.87h1.08c0.13,0,0.23,0.01,0.3,0.03s0.13,0.09,0.19,0.21l2.85,5.16c0.06,0.12,0.12,0.24,0.18,0.37
				c0.06,0.12,0.11,0.25,0.15,0.38c0.05-0.13,0.1-0.26,0.16-0.39c0.06-0.13,0.11-0.25,0.18-0.37l2.8-5.14
				c0.06-0.12,0.12-0.18,0.19-0.21s0.17-0.03,0.3-0.03H85.34z"/>
		</g>
		<g>
			<path class="st0" d="M89.72,123.61c0.46,0,0.88,0.08,1.26,0.23c0.38,0.15,0.7,0.37,0.96,0.65c0.27,0.28,0.47,0.62,0.61,1.02
				c0.14,0.4,0.22,0.85,0.22,1.34c0,0.5-0.07,0.94-0.22,1.34c-0.14,0.4-0.35,0.74-0.61,1.02c-0.26,0.28-0.58,0.5-0.96,0.65
				c-0.38,0.15-0.8,0.23-1.26,0.23c-0.47,0-0.89-0.08-1.27-0.23c-0.38-0.15-0.7-0.37-0.96-0.65s-0.47-0.62-0.62-1.02
				c-0.14-0.4-0.22-0.85-0.22-1.34c0-0.5,0.07-0.94,0.22-1.34c0.14-0.4,0.35-0.74,0.62-1.02s0.59-0.49,0.96-0.65
				C88.83,123.68,89.25,123.61,89.72,123.61z M89.72,129.04c0.57,0,0.99-0.19,1.27-0.57s0.42-0.92,0.42-1.63
				c0-0.71-0.14-1.25-0.42-1.64c-0.28-0.38-0.7-0.58-1.27-0.58c-0.58,0-1,0.19-1.28,0.58c-0.28,0.38-0.42,0.93-0.42,1.64
				c0,0.71,0.14,1.25,0.42,1.63S89.15,129.04,89.72,129.04z"/>
		</g>
		<g>
			<path class="st0" d="M97.79,124.84c-0.03,0.06-0.07,0.1-0.11,0.12c-0.04,0.02-0.09,0.04-0.15,0.04c-0.07,0-0.15-0.02-0.23-0.06
				s-0.18-0.09-0.29-0.14c-0.11-0.05-0.24-0.1-0.39-0.15s-0.33-0.06-0.53-0.06c-0.16,0-0.31,0.02-0.45,0.06
				c-0.13,0.04-0.25,0.09-0.34,0.17s-0.16,0.16-0.21,0.25c-0.05,0.1-0.07,0.2-0.07,0.31c0,0.15,0.05,0.27,0.14,0.37
				s0.21,0.18,0.36,0.26c0.15,0.07,0.32,0.14,0.5,0.19c0.19,0.06,0.38,0.12,0.58,0.19c0.2,0.07,0.39,0.14,0.58,0.23
				c0.19,0.09,0.36,0.19,0.5,0.32c0.15,0.13,0.27,0.28,0.36,0.46c0.09,0.18,0.14,0.4,0.14,0.65c0,0.3-0.05,0.57-0.16,0.82
				s-0.26,0.47-0.47,0.65c-0.21,0.19-0.46,0.33-0.77,0.43c-0.31,0.1-0.66,0.15-1.05,0.15c-0.22,0-0.43-0.02-0.63-0.06
				s-0.4-0.09-0.58-0.16s-0.35-0.15-0.51-0.24c-0.16-0.09-0.3-0.2-0.42-0.31l0.31-0.5c0.04-0.06,0.08-0.11,0.14-0.15
				c0.06-0.03,0.12-0.05,0.21-0.05c0.09,0,0.17,0.03,0.26,0.08c0.08,0.06,0.18,0.12,0.3,0.18c0.11,0.07,0.25,0.13,0.41,0.18
				c0.16,0.06,0.36,0.08,0.6,0.08c0.2,0,0.37-0.02,0.51-0.07c0.14-0.05,0.26-0.11,0.36-0.19c0.09-0.08,0.16-0.18,0.21-0.28
				c0.05-0.1,0.07-0.22,0.07-0.34c0-0.16-0.04-0.29-0.14-0.39c-0.09-0.1-0.21-0.19-0.36-0.26s-0.32-0.14-0.51-0.2
				c-0.19-0.06-0.39-0.12-0.58-0.18c-0.2-0.07-0.39-0.14-0.58-0.23c-0.19-0.09-0.36-0.2-0.51-0.33c-0.15-0.13-0.27-0.3-0.36-0.49
				s-0.14-0.42-0.14-0.7c0-0.25,0.05-0.49,0.15-0.71c0.1-0.23,0.25-0.43,0.44-0.6c0.2-0.17,0.44-0.31,0.72-0.41
				c0.29-0.1,0.61-0.15,0.99-0.15c0.42,0,0.81,0.07,1.15,0.2c0.34,0.14,0.63,0.32,0.87,0.55L97.79,124.84z"/>
		</g>
		<g>
			<path class="st0" d="M101.43,130.09c-0.52,0-0.92-0.15-1.2-0.44s-0.42-0.71-0.42-1.24v-3.66h-0.69c-0.07,0-0.14-0.02-0.19-0.07
				c-0.05-0.05-0.08-0.12-0.08-0.21v-0.54l1.02-0.15l0.29-1.82c0.02-0.07,0.06-0.13,0.1-0.17s0.12-0.06,0.2-0.06h0.68v2.06h1.74
				v0.96h-1.74v3.57c0,0.23,0.06,0.4,0.17,0.52c0.11,0.12,0.26,0.18,0.44,0.18c0.1,0,0.19-0.01,0.27-0.04
				c0.07-0.03,0.14-0.06,0.19-0.09c0.05-0.03,0.1-0.06,0.14-0.09s0.08-0.04,0.11-0.04c0.07,0,0.13,0.04,0.18,0.12l0.39,0.65
				c-0.21,0.18-0.45,0.32-0.73,0.42C102.01,130.04,101.73,130.09,101.43,130.09z"/>
		</g>
		<g>
			<path class="st0" d="M112.97,122.32h-2.77v7.67h-1.44v-7.67h-2.77v-1.2h6.97V122.32z"/>
		</g>
		<g>
			<path class="st0" d="M113.91,124.87c0.2-0.4,0.44-0.71,0.71-0.94s0.61-0.34,1-0.34c0.14,0,0.26,0.02,0.38,0.05
				s0.23,0.08,0.32,0.14l-0.09,1c-0.02,0.07-0.04,0.12-0.08,0.15c-0.03,0.03-0.08,0.04-0.14,0.04c-0.06,0-0.15-0.01-0.26-0.03
				c-0.12-0.02-0.24-0.03-0.36-0.03c-0.19,0-0.35,0.03-0.49,0.08s-0.27,0.13-0.38,0.23c-0.11,0.1-0.21,0.23-0.3,0.38
				c-0.09,0.15-0.17,0.32-0.24,0.5v3.91h-1.32v-6.28h0.77c0.14,0,0.24,0.03,0.29,0.08c0.05,0.05,0.09,0.14,0.11,0.27L113.91,124.87z
				"/>
		</g>
		<g>
			<path class="st0" d="M122.5,123.7v6.28h-0.8c-0.18,0-0.29-0.08-0.34-0.25l-0.1-0.59c-0.13,0.14-0.27,0.27-0.42,0.38
				c-0.15,0.12-0.3,0.21-0.46,0.3c-0.16,0.08-0.34,0.15-0.53,0.19c-0.19,0.05-0.39,0.07-0.6,0.07c-0.34,0-0.65-0.06-0.91-0.17
				c-0.26-0.12-0.48-0.28-0.66-0.49s-0.31-0.46-0.4-0.75s-0.14-0.62-0.14-0.97v-4h1.32v4c0,0.42,0.1,0.75,0.29,0.99
				c0.19,0.23,0.49,0.35,0.89,0.35c0.29,0,0.56-0.07,0.82-0.2c0.25-0.13,0.49-0.32,0.71-0.55v-4.58H122.5z"/>
		</g>
		<g>
			<path class="st0" d="M127.87,124.84c-0.03,0.06-0.07,0.1-0.11,0.12c-0.04,0.02-0.09,0.04-0.15,0.04c-0.07,0-0.15-0.02-0.23-0.06
				s-0.18-0.09-0.29-0.14c-0.11-0.05-0.24-0.1-0.39-0.15s-0.33-0.06-0.53-0.06c-0.16,0-0.31,0.02-0.45,0.06
				c-0.13,0.04-0.25,0.09-0.34,0.17s-0.16,0.16-0.21,0.25c-0.05,0.1-0.07,0.2-0.07,0.31c0,0.15,0.05,0.27,0.14,0.37
				s0.21,0.18,0.36,0.26c0.15,0.07,0.32,0.14,0.5,0.19c0.19,0.06,0.38,0.12,0.58,0.19c0.2,0.07,0.39,0.14,0.58,0.23
				c0.19,0.09,0.36,0.19,0.5,0.32c0.15,0.13,0.27,0.28,0.36,0.46c0.09,0.18,0.14,0.4,0.14,0.65c0,0.3-0.05,0.57-0.16,0.82
				c-0.11,0.25-0.26,0.47-0.47,0.65c-0.21,0.19-0.46,0.33-0.77,0.43c-0.31,0.1-0.66,0.15-1.05,0.15c-0.22,0-0.43-0.02-0.63-0.06
				s-0.4-0.09-0.58-0.16s-0.35-0.15-0.51-0.24c-0.16-0.09-0.3-0.2-0.42-0.31l0.31-0.5c0.04-0.06,0.08-0.11,0.14-0.15
				c0.06-0.03,0.12-0.05,0.21-0.05c0.09,0,0.17,0.03,0.26,0.08c0.08,0.06,0.18,0.12,0.3,0.18c0.11,0.07,0.25,0.13,0.41,0.18
				c0.16,0.06,0.36,0.08,0.6,0.08c0.2,0,0.37-0.02,0.51-0.07c0.14-0.05,0.26-0.11,0.36-0.19c0.09-0.08,0.16-0.18,0.21-0.28
				c0.05-0.1,0.07-0.22,0.07-0.34c0-0.16-0.04-0.29-0.14-0.39c-0.09-0.1-0.21-0.19-0.36-0.26s-0.32-0.14-0.51-0.2
				c-0.19-0.06-0.39-0.12-0.58-0.18c-0.2-0.07-0.39-0.14-0.58-0.23c-0.19-0.09-0.36-0.2-0.51-0.33c-0.15-0.13-0.27-0.3-0.36-0.49
				s-0.14-0.42-0.14-0.7c0-0.25,0.05-0.49,0.15-0.71c0.1-0.23,0.25-0.43,0.44-0.6c0.2-0.17,0.44-0.31,0.72-0.41
				c0.29-0.1,0.61-0.15,0.99-0.15c0.42,0,0.81,0.07,1.15,0.2c0.34,0.14,0.63,0.32,0.87,0.55L127.87,124.84z"/>
		</g>
		<g>
			<path class="st0" d="M131.51,130.09c-0.52,0-0.92-0.15-1.2-0.44s-0.42-0.71-0.42-1.24v-3.66h-0.69c-0.07,0-0.14-0.02-0.19-0.07
				c-0.05-0.05-0.08-0.12-0.08-0.21v-0.54l1.02-0.15l0.29-1.82c0.02-0.07,0.06-0.13,0.1-0.17s0.12-0.06,0.2-0.06h0.68v2.06h1.74
				v0.96h-1.74v3.57c0,0.23,0.06,0.4,0.17,0.52c0.11,0.12,0.26,0.18,0.44,0.18c0.1,0,0.19-0.01,0.27-0.04
				c0.07-0.03,0.14-0.06,0.19-0.09c0.05-0.03,0.1-0.06,0.14-0.09s0.08-0.04,0.11-0.04c0.07,0,0.13,0.04,0.18,0.12l0.39,0.65
				c-0.21,0.18-0.45,0.32-0.73,0.42C132.09,130.04,131.8,130.09,131.51,130.09z"/>
		</g>
		<g>
			<path class="st0" d="M134.91,126.95c0.02,0.36,0.07,0.67,0.17,0.93c0.09,0.26,0.22,0.48,0.38,0.65s0.35,0.3,0.57,0.39
				c0.22,0.08,0.47,0.13,0.74,0.13c0.26,0,0.48-0.03,0.67-0.09c0.19-0.06,0.35-0.12,0.49-0.2s0.26-0.14,0.36-0.2
				s0.19-0.09,0.27-0.09c0.11,0,0.19,0.04,0.25,0.12l0.38,0.49c-0.16,0.18-0.33,0.34-0.53,0.47s-0.41,0.23-0.63,0.31
				c-0.22,0.08-0.45,0.14-0.68,0.17c-0.23,0.03-0.46,0.05-0.68,0.05c-0.44,0-0.84-0.07-1.21-0.22c-0.37-0.15-0.69-0.36-0.97-0.64
				c-0.27-0.28-0.49-0.63-0.64-1.05c-0.15-0.42-0.23-0.9-0.23-1.45c0-0.44,0.07-0.84,0.21-1.22s0.33-0.71,0.59-0.99
				c0.26-0.28,0.57-0.5,0.94-0.66c0.37-0.16,0.78-0.24,1.25-0.24c0.39,0,0.74,0.06,1.07,0.19c0.33,0.12,0.61,0.31,0.85,0.55
				s0.42,0.54,0.56,0.89c0.13,0.35,0.2,0.75,0.2,1.2c0,0.21-0.02,0.34-0.07,0.41c-0.05,0.07-0.13,0.1-0.25,0.1H134.91z
				 M138.07,126.14c0-0.22-0.03-0.43-0.1-0.62c-0.06-0.19-0.16-0.36-0.28-0.5c-0.12-0.14-0.28-0.25-0.46-0.33
				c-0.18-0.08-0.39-0.12-0.63-0.12c-0.48,0-0.86,0.14-1.13,0.41c-0.27,0.28-0.45,0.66-0.52,1.16H138.07z"/>
		</g>
		<g>
			<path class="st0" d="M145.83,120.87v9.12h-0.8c-0.18,0-0.29-0.08-0.34-0.25l-0.12-0.68c-0.26,0.31-0.56,0.56-0.9,0.75
				s-0.72,0.28-1.17,0.28c-0.35,0-0.67-0.07-0.96-0.21c-0.29-0.14-0.53-0.35-0.74-0.62c-0.21-0.27-0.36-0.61-0.48-1.01
				s-0.17-0.86-0.17-1.38c0-0.47,0.06-0.9,0.19-1.3c0.13-0.4,0.31-0.74,0.54-1.04s0.52-0.52,0.85-0.69s0.71-0.25,1.12-0.25
				c0.37,0,0.68,0.06,0.94,0.18c0.26,0.12,0.49,0.28,0.7,0.49v-3.38H145.83z M144.5,125.25c-0.19-0.24-0.39-0.4-0.61-0.5
				c-0.22-0.09-0.46-0.14-0.72-0.14c-0.52,0-0.92,0.19-1.21,0.57s-0.44,0.94-0.44,1.68c0,0.39,0.03,0.72,0.1,0.99
				s0.16,0.5,0.28,0.67c0.12,0.17,0.27,0.3,0.45,0.38c0.18,0.08,0.38,0.12,0.6,0.12c0.34,0,0.63-0.07,0.87-0.22
				c0.24-0.15,0.47-0.35,0.68-0.62V125.25z"/>
		</g>
		<g>
			<path class="st0" d="M160.19,121.12v8.87h-1.27v-6.08c0-0.1,0-0.21,0.01-0.32c0.01-0.12,0.02-0.24,0.03-0.35l-2.85,5.27
				c-0.11,0.22-0.28,0.33-0.51,0.33h-0.2c-0.23,0-0.4-0.11-0.51-0.33l-2.9-5.28c0.01,0.12,0.02,0.24,0.03,0.36s0.01,0.23,0.01,0.33
				v6.08h-1.27v-8.87h1.08c0.13,0,0.23,0.01,0.3,0.03s0.13,0.09,0.19,0.21l2.85,5.16c0.06,0.12,0.12,0.24,0.18,0.37
				c0.06,0.12,0.11,0.25,0.15,0.38c0.05-0.13,0.1-0.26,0.16-0.39c0.06-0.13,0.11-0.25,0.18-0.37l2.8-5.14
				c0.06-0.12,0.12-0.18,0.19-0.21s0.17-0.03,0.3-0.03H160.19z"/>
		</g>
		<g>
			<path class="st0" d="M161.73,124.58c0.71-0.66,1.56-0.99,2.54-0.99c0.36,0,0.68,0.06,0.96,0.18c0.28,0.12,0.52,0.28,0.71,0.5
				c0.19,0.21,0.34,0.47,0.44,0.76s0.15,0.62,0.15,0.98v3.99h-0.59c-0.13,0-0.22-0.02-0.29-0.06c-0.07-0.04-0.12-0.12-0.17-0.24
				l-0.13-0.51c-0.16,0.14-0.32,0.27-0.47,0.39c-0.16,0.11-0.32,0.21-0.48,0.29c-0.17,0.08-0.34,0.14-0.54,0.18s-0.4,0.06-0.63,0.06
				c-0.25,0-0.49-0.04-0.71-0.1c-0.22-0.07-0.41-0.18-0.57-0.32s-0.29-0.32-0.38-0.53s-0.14-0.46-0.14-0.74
				c0-0.24,0.06-0.48,0.19-0.71c0.13-0.23,0.34-0.44,0.64-0.62c0.3-0.18,0.69-0.33,1.18-0.45c0.49-0.12,1.09-0.19,1.8-0.2V126
				c0-0.45-0.1-0.79-0.29-1.01c-0.19-0.22-0.48-0.33-0.85-0.33c-0.25,0-0.47,0.03-0.64,0.1c-0.17,0.06-0.32,0.13-0.45,0.21
				c-0.13,0.07-0.24,0.14-0.34,0.21c-0.1,0.06-0.2,0.1-0.31,0.1c-0.09,0-0.17-0.02-0.23-0.07c-0.06-0.05-0.12-0.11-0.16-0.18
				L161.73,124.58z M165.24,127.24c-0.47,0.02-0.87,0.05-1.2,0.11c-0.32,0.06-0.59,0.14-0.79,0.23s-0.35,0.2-0.43,0.33
				s-0.13,0.27-0.13,0.42c0,0.15,0.02,0.27,0.07,0.38c0.05,0.1,0.11,0.19,0.2,0.26c0.08,0.07,0.18,0.12,0.3,0.15
				c0.11,0.03,0.24,0.05,0.37,0.05c0.34,0,0.64-0.06,0.89-0.19s0.49-0.32,0.72-0.56V127.24z"/>
		</g>
		<g>
			<path class="st0" d="M170,130.09c-0.52,0-0.92-0.15-1.2-0.44s-0.42-0.71-0.42-1.24v-3.66h-0.69c-0.07,0-0.14-0.02-0.19-0.07
				c-0.05-0.05-0.08-0.12-0.08-0.21v-0.54l1.02-0.15l0.29-1.82c0.02-0.07,0.06-0.13,0.1-0.17s0.12-0.06,0.2-0.06h0.68v2.06h1.74
				v0.96h-1.74v3.57c0,0.23,0.06,0.4,0.17,0.52c0.11,0.12,0.26,0.18,0.44,0.18c0.1,0,0.19-0.01,0.27-0.04
				c0.07-0.03,0.14-0.06,0.19-0.09c0.05-0.03,0.1-0.06,0.14-0.09s0.08-0.04,0.11-0.04c0.07,0,0.13,0.04,0.18,0.12l0.39,0.65
				c-0.21,0.18-0.45,0.32-0.73,0.42C170.58,130.04,170.29,130.09,170,130.09z"/>
		</g>
		<g>
			<path class="st0" d="M173.74,124.87c0.2-0.4,0.44-0.71,0.71-0.94s0.61-0.34,1-0.34c0.14,0,0.26,0.02,0.38,0.05
				s0.23,0.08,0.32,0.14l-0.09,1c-0.02,0.07-0.04,0.12-0.08,0.15c-0.03,0.03-0.08,0.04-0.14,0.04c-0.06,0-0.15-0.01-0.26-0.03
				c-0.12-0.02-0.24-0.03-0.36-0.03c-0.19,0-0.35,0.03-0.49,0.08s-0.27,0.13-0.38,0.23c-0.11,0.1-0.21,0.23-0.3,0.38
				c-0.09,0.15-0.17,0.32-0.24,0.5v3.91h-1.32v-6.28h0.77c0.14,0,0.24,0.03,0.29,0.08c0.05,0.05,0.09,0.14,0.11,0.27L173.74,124.87z
				"/>
		</g>
		<g>
			<path class="st0" d="M178.63,121.81c0,0.12-0.02,0.23-0.07,0.34c-0.05,0.11-0.11,0.2-0.19,0.28s-0.18,0.14-0.29,0.19
				c-0.11,0.05-0.22,0.07-0.35,0.07c-0.12,0-0.23-0.02-0.34-0.07c-0.1-0.05-0.2-0.11-0.27-0.19c-0.08-0.08-0.14-0.17-0.19-0.28
				c-0.05-0.11-0.07-0.22-0.07-0.34c0-0.12,0.02-0.24,0.07-0.34s0.11-0.2,0.19-0.28c0.08-0.08,0.17-0.14,0.27-0.19
				s0.22-0.07,0.34-0.07c0.12,0,0.24,0.02,0.35,0.07c0.11,0.05,0.2,0.11,0.29,0.19s0.15,0.17,0.19,0.28S178.63,121.68,178.63,121.81
				z M178.41,123.7v6.28h-1.32v-6.28H178.41z"/>
		</g>
		<g>
			<path class="st0" d="M180.08,129.99v-6.28h0.8c0.18,0,0.3,0.08,0.35,0.25l0.09,0.55c0.12-0.13,0.23-0.25,0.36-0.36
				s0.26-0.2,0.4-0.28s0.29-0.14,0.46-0.19c0.16-0.05,0.34-0.07,0.53-0.07c0.2,0,0.39,0.03,0.55,0.09c0.17,0.06,0.32,0.14,0.45,0.25
				c0.13,0.11,0.24,0.24,0.33,0.39c0.1,0.15,0.17,0.32,0.23,0.51c0.1-0.22,0.21-0.4,0.36-0.56s0.3-0.28,0.48-0.38
				s0.37-0.17,0.56-0.22s0.4-0.07,0.61-0.07c0.34,0,0.64,0.05,0.9,0.16c0.27,0.11,0.49,0.26,0.67,0.46c0.18,0.2,0.32,0.45,0.42,0.75
				c0.09,0.3,0.14,0.63,0.14,1.01v4h-1.32v-4c0-0.44-0.09-0.78-0.29-1s-0.47-0.34-0.85-0.34c-0.17,0-0.33,0.03-0.47,0.09
				c-0.15,0.06-0.28,0.14-0.39,0.25c-0.11,0.11-0.2,0.25-0.26,0.42c-0.06,0.17-0.1,0.36-0.1,0.58v4h-1.33v-4
				c0-0.46-0.09-0.8-0.28-1.01c-0.18-0.22-0.46-0.32-0.81-0.32c-0.25,0-0.47,0.06-0.68,0.19c-0.21,0.13-0.4,0.3-0.58,0.51v4.63
				H180.08z"/>
		</g>
		<g>
			<path class="st0" d="M193.03,123.61c0.46,0,0.88,0.08,1.26,0.23c0.38,0.15,0.7,0.37,0.96,0.65c0.26,0.28,0.47,0.62,0.61,1.02
				s0.22,0.85,0.22,1.34c0,0.5-0.07,0.94-0.22,1.34s-0.35,0.74-0.61,1.02c-0.27,0.28-0.59,0.5-0.96,0.65
				c-0.38,0.15-0.8,0.23-1.26,0.23c-0.47,0-0.89-0.08-1.27-0.23c-0.38-0.15-0.7-0.37-0.96-0.65c-0.27-0.28-0.47-0.62-0.62-1.02
				s-0.22-0.85-0.22-1.34c0-0.5,0.07-0.94,0.22-1.34s0.35-0.74,0.62-1.02c0.27-0.28,0.59-0.49,0.96-0.65
				C192.14,123.68,192.56,123.61,193.03,123.61z M193.03,129.04c0.57,0,0.99-0.19,1.27-0.57s0.42-0.92,0.42-1.63
				c0-0.71-0.14-1.25-0.42-1.64c-0.28-0.38-0.7-0.58-1.27-0.58c-0.58,0-1,0.19-1.28,0.58c-0.28,0.38-0.42,0.93-0.42,1.64
				c0,0.71,0.14,1.25,0.42,1.63S192.45,129.04,193.03,129.04z"/>
		</g>
		<g>
			<path class="st0" d="M198.58,124.54c0.14-0.14,0.28-0.27,0.42-0.38s0.3-0.21,0.46-0.29s0.34-0.15,0.52-0.19
				c0.19-0.05,0.39-0.07,0.6-0.07c0.34,0,0.65,0.06,0.91,0.17c0.26,0.12,0.48,0.28,0.66,0.49s0.31,0.46,0.4,0.75
				c0.09,0.29,0.14,0.62,0.14,0.97v4h-1.32v-4c0-0.42-0.1-0.75-0.29-0.99c-0.19-0.23-0.49-0.35-0.89-0.35c-0.3,0-0.57,0.07-0.82,0.2
				c-0.25,0.14-0.49,0.32-0.71,0.55v4.58h-1.32v-6.28h0.8c0.18,0,0.3,0.08,0.34,0.25L198.58,124.54z"/>
		</g>
		<g>
			<path class="st0" d="M205.86,121.81c0,0.12-0.02,0.23-0.07,0.34c-0.05,0.11-0.11,0.2-0.19,0.28s-0.18,0.14-0.29,0.19
				c-0.11,0.05-0.23,0.07-0.35,0.07c-0.12,0-0.23-0.02-0.33-0.07c-0.11-0.05-0.2-0.11-0.27-0.19s-0.14-0.17-0.19-0.28
				c-0.05-0.11-0.07-0.22-0.07-0.34c0-0.12,0.02-0.24,0.07-0.34c0.05-0.11,0.11-0.2,0.19-0.28s0.17-0.14,0.27-0.19
				c0.1-0.05,0.22-0.07,0.33-0.07c0.12,0,0.24,0.02,0.35,0.07c0.11,0.05,0.2,0.11,0.29,0.19s0.15,0.17,0.19,0.28
				C205.84,121.57,205.86,121.68,205.86,121.81z M205.64,123.7v6.28h-1.32v-6.28H205.64z"/>
		</g>
		<g>
			<path class="st0" d="M207.15,124.58c0.71-0.66,1.56-0.99,2.54-0.99c0.36,0,0.68,0.06,0.96,0.18c0.28,0.12,0.52,0.28,0.71,0.5
				c0.19,0.21,0.34,0.47,0.44,0.76c0.1,0.29,0.15,0.62,0.15,0.98v3.99h-0.59c-0.13,0-0.22-0.02-0.29-0.06s-0.12-0.12-0.17-0.24
				l-0.13-0.51c-0.16,0.14-0.32,0.27-0.47,0.39c-0.16,0.11-0.32,0.21-0.48,0.29c-0.17,0.08-0.35,0.14-0.54,0.18
				c-0.19,0.04-0.4,0.06-0.63,0.06c-0.25,0-0.49-0.04-0.71-0.1s-0.41-0.18-0.57-0.32s-0.29-0.32-0.38-0.53
				c-0.09-0.21-0.14-0.46-0.14-0.74c0-0.24,0.06-0.48,0.19-0.71c0.13-0.23,0.34-0.44,0.64-0.62s0.69-0.33,1.18-0.45
				s1.09-0.19,1.8-0.2V126c0-0.45-0.1-0.79-0.29-1.01c-0.19-0.22-0.48-0.33-0.85-0.33c-0.25,0-0.47,0.03-0.64,0.1
				c-0.17,0.06-0.32,0.13-0.45,0.21c-0.13,0.07-0.24,0.14-0.34,0.21c-0.1,0.06-0.2,0.1-0.31,0.1c-0.09,0-0.17-0.02-0.23-0.07
				c-0.06-0.05-0.12-0.11-0.16-0.18L207.15,124.58z M210.66,127.24c-0.47,0.02-0.87,0.05-1.2,0.11s-0.59,0.14-0.79,0.23
				s-0.35,0.2-0.43,0.33c-0.09,0.13-0.13,0.27-0.13,0.42c0,0.15,0.02,0.27,0.07,0.38c0.05,0.1,0.11,0.19,0.2,0.26
				s0.18,0.12,0.3,0.15c0.11,0.03,0.24,0.05,0.37,0.05c0.35,0,0.64-0.06,0.89-0.19c0.25-0.13,0.49-0.32,0.72-0.56V127.24z"/>
		</g>
		<g>
			<path class="st0" d="M214.85,120.87v9.12h-1.32v-9.12H214.85z"/>
		</g>
		<g>
			<path class="st0" d="M224.44,122.63c-0.04,0.07-0.09,0.13-0.14,0.16c-0.05,0.04-0.11,0.05-0.18,0.05c-0.08,0-0.17-0.03-0.26-0.1
				c-0.1-0.07-0.22-0.14-0.36-0.22s-0.31-0.15-0.5-0.22c-0.19-0.07-0.42-0.1-0.69-0.1c-0.25,0-0.46,0.03-0.65,0.09
				c-0.19,0.06-0.34,0.15-0.47,0.26c-0.13,0.11-0.22,0.24-0.29,0.39c-0.06,0.15-0.1,0.31-0.1,0.49c0,0.23,0.06,0.41,0.18,0.56
				s0.28,0.28,0.47,0.38c0.19,0.11,0.42,0.2,0.67,0.28c0.25,0.08,0.51,0.17,0.77,0.26s0.52,0.19,0.77,0.31
				c0.25,0.12,0.47,0.26,0.67,0.44s0.35,0.39,0.47,0.65c0.12,0.25,0.18,0.56,0.18,0.93c0,0.39-0.07,0.76-0.2,1.11
				c-0.13,0.34-0.33,0.65-0.59,0.9c-0.26,0.26-0.57,0.46-0.95,0.61c-0.38,0.15-0.8,0.22-1.28,0.22c-0.28,0-0.56-0.03-0.83-0.08
				c-0.27-0.06-0.53-0.13-0.77-0.23s-0.47-0.22-0.69-0.37c-0.21-0.14-0.41-0.3-0.57-0.48l0.42-0.69c0.04-0.06,0.08-0.1,0.14-0.14
				c0.06-0.03,0.12-0.05,0.19-0.05c0.09,0,0.2,0.04,0.31,0.13c0.12,0.09,0.25,0.18,0.42,0.29c0.16,0.1,0.36,0.2,0.59,0.29
				c0.23,0.09,0.5,0.13,0.83,0.13c0.52,0,0.93-0.13,1.21-0.38c0.29-0.25,0.43-0.61,0.43-1.05c0-0.25-0.06-0.45-0.18-0.61
				s-0.28-0.29-0.47-0.4c-0.2-0.11-0.42-0.2-0.67-0.27c-0.25-0.07-0.5-0.15-0.76-0.24c-0.26-0.08-0.51-0.18-0.76-0.3
				c-0.25-0.11-0.47-0.26-0.67-0.44c-0.2-0.18-0.35-0.41-0.47-0.68c-0.12-0.27-0.18-0.6-0.18-1.01c0-0.32,0.06-0.63,0.19-0.93
				c0.12-0.3,0.31-0.57,0.55-0.8s0.54-0.42,0.89-0.56c0.35-0.14,0.75-0.21,1.21-0.21c0.51,0,0.98,0.08,1.4,0.24s0.79,0.39,1.1,0.68
				L224.44,122.63z"/>
		</g>
		<g>
			<path class="st0" d="M227.21,126.95c0.02,0.36,0.07,0.67,0.17,0.93c0.09,0.26,0.22,0.48,0.38,0.65c0.16,0.17,0.35,0.3,0.57,0.39
				c0.22,0.08,0.46,0.13,0.74,0.13c0.26,0,0.48-0.03,0.67-0.09c0.19-0.06,0.35-0.12,0.49-0.2c0.14-0.07,0.26-0.14,0.36-0.2
				s0.19-0.09,0.27-0.09c0.11,0,0.19,0.04,0.25,0.12l0.38,0.49c-0.16,0.18-0.33,0.34-0.53,0.47c-0.2,0.13-0.41,0.23-0.63,0.31
				s-0.45,0.14-0.68,0.17c-0.23,0.03-0.46,0.05-0.68,0.05c-0.44,0-0.84-0.07-1.21-0.22c-0.37-0.15-0.69-0.36-0.97-0.64
				c-0.27-0.28-0.49-0.63-0.64-1.05c-0.15-0.42-0.23-0.9-0.23-1.45c0-0.44,0.07-0.84,0.21-1.22s0.33-0.71,0.59-0.99
				c0.26-0.28,0.57-0.5,0.94-0.66c0.37-0.16,0.78-0.24,1.25-0.24c0.39,0,0.74,0.06,1.07,0.19c0.33,0.12,0.61,0.31,0.85,0.55
				c0.24,0.24,0.42,0.54,0.56,0.89c0.13,0.35,0.2,0.75,0.2,1.2c0,0.21-0.02,0.34-0.07,0.41c-0.04,0.07-0.13,0.1-0.25,0.1H227.21z
				 M230.37,126.14c0-0.22-0.03-0.43-0.1-0.62s-0.16-0.36-0.28-0.5s-0.28-0.25-0.46-0.33s-0.39-0.12-0.63-0.12
				c-0.48,0-0.86,0.14-1.13,0.41c-0.28,0.28-0.45,0.66-0.52,1.16H230.37z"/>
		</g>
		<g>
			<path class="st0" d="M234.04,124.87c0.2-0.4,0.43-0.71,0.71-0.94s0.61-0.34,1-0.34c0.14,0,0.26,0.02,0.38,0.05
				c0.12,0.03,0.23,0.08,0.32,0.14l-0.09,1c-0.02,0.07-0.04,0.12-0.08,0.15c-0.04,0.03-0.08,0.04-0.14,0.04
				c-0.06,0-0.15-0.01-0.26-0.03c-0.12-0.02-0.24-0.03-0.36-0.03c-0.18,0-0.35,0.03-0.49,0.08s-0.27,0.13-0.38,0.23
				c-0.11,0.1-0.21,0.23-0.3,0.38c-0.09,0.15-0.17,0.32-0.24,0.5v3.91h-1.32v-6.28h0.77c0.14,0,0.24,0.03,0.29,0.08
				c0.05,0.05,0.09,0.14,0.11,0.27L234.04,124.87z"/>
		</g>
		<g>
			<path class="st0" d="M242.86,123.7l-2.53,6.28h-1.19l-2.53-6.28h1.09c0.1,0,0.19,0.03,0.26,0.08c0.07,0.05,0.11,0.11,0.13,0.18
				l1.39,3.66c0.06,0.17,0.11,0.34,0.15,0.51c0.04,0.17,0.08,0.34,0.12,0.51c0.03-0.17,0.07-0.34,0.12-0.51
				c0.05-0.17,0.1-0.34,0.16-0.51l1.42-3.66c0.02-0.07,0.07-0.14,0.14-0.19c0.07-0.05,0.15-0.07,0.24-0.07H242.86z"/>
		</g>
		<g>
			<path class="st0" d="M245.37,121.81c0,0.12-0.02,0.23-0.07,0.34c-0.05,0.11-0.11,0.2-0.19,0.28s-0.18,0.14-0.29,0.19
				c-0.11,0.05-0.23,0.07-0.35,0.07c-0.12,0-0.23-0.02-0.33-0.07c-0.11-0.05-0.2-0.11-0.27-0.19s-0.14-0.17-0.19-0.28
				c-0.05-0.11-0.07-0.22-0.07-0.34c0-0.12,0.02-0.24,0.07-0.34c0.05-0.11,0.11-0.2,0.19-0.28s0.17-0.14,0.27-0.19
				c0.1-0.05,0.22-0.07,0.33-0.07c0.12,0,0.24,0.02,0.35,0.07c0.11,0.05,0.2,0.11,0.29,0.19s0.15,0.17,0.19,0.28
				C245.35,121.57,245.37,121.68,245.37,121.81z M245.15,123.7v6.28h-1.32v-6.28H245.15z"/>
		</g>
		<g>
			<path class="st0" d="M251.26,124.94c-0.04,0.05-0.08,0.09-0.12,0.12s-0.09,0.04-0.16,0.04c-0.07,0-0.14-0.02-0.22-0.07
				s-0.17-0.1-0.27-0.16c-0.11-0.06-0.23-0.11-0.38-0.16c-0.15-0.05-0.33-0.07-0.55-0.07c-0.29,0-0.54,0.05-0.75,0.15
				c-0.21,0.1-0.4,0.25-0.54,0.44c-0.15,0.19-0.25,0.42-0.33,0.7s-0.11,0.58-0.11,0.92c0,0.35,0.04,0.67,0.12,0.94
				c0.08,0.27,0.19,0.51,0.33,0.7c0.15,0.19,0.32,0.33,0.53,0.43c0.21,0.1,0.44,0.15,0.7,0.15c0.25,0,0.46-0.03,0.62-0.09
				s0.29-0.13,0.4-0.2c0.11-0.07,0.2-0.14,0.27-0.2s0.16-0.09,0.24-0.09c0.11,0,0.19,0.04,0.25,0.12l0.38,0.49
				c-0.15,0.18-0.32,0.34-0.51,0.47c-0.18,0.13-0.38,0.23-0.58,0.31s-0.42,0.14-0.64,0.17c-0.22,0.03-0.45,0.05-0.67,0.05
				c-0.39,0-0.75-0.07-1.09-0.22c-0.34-0.15-0.63-0.36-0.89-0.63c-0.25-0.28-0.45-0.62-0.6-1.02s-0.22-0.86-0.22-1.37
				c0-0.46,0.07-0.89,0.2-1.29c0.13-0.4,0.32-0.74,0.58-1.03c0.25-0.29,0.57-0.51,0.94-0.67c0.37-0.16,0.8-0.24,1.29-0.24
				c0.46,0,0.86,0.07,1.2,0.22s0.66,0.36,0.93,0.63L251.26,124.94z"/>
		</g>
		<g>
			<path class="st0" d="M253.58,126.95c0.02,0.36,0.07,0.67,0.17,0.93c0.09,0.26,0.22,0.48,0.38,0.65c0.16,0.17,0.35,0.3,0.57,0.39
				c0.22,0.08,0.46,0.13,0.74,0.13c0.26,0,0.48-0.03,0.67-0.09c0.19-0.06,0.35-0.12,0.49-0.2c0.14-0.07,0.26-0.14,0.36-0.2
				s0.19-0.09,0.27-0.09c0.11,0,0.19,0.04,0.25,0.12l0.38,0.49c-0.16,0.18-0.33,0.34-0.53,0.47c-0.2,0.13-0.41,0.23-0.63,0.31
				s-0.45,0.14-0.68,0.17c-0.23,0.03-0.46,0.05-0.68,0.05c-0.44,0-0.84-0.07-1.21-0.22c-0.37-0.15-0.69-0.36-0.97-0.64
				c-0.27-0.28-0.49-0.63-0.64-1.05c-0.15-0.42-0.23-0.9-0.23-1.45c0-0.44,0.07-0.84,0.21-1.22s0.33-0.71,0.59-0.99
				c0.26-0.28,0.57-0.5,0.94-0.66c0.37-0.16,0.78-0.24,1.25-0.24c0.39,0,0.74,0.06,1.07,0.19c0.33,0.12,0.61,0.31,0.85,0.55
				c0.24,0.24,0.42,0.54,0.56,0.89c0.13,0.35,0.2,0.75,0.2,1.2c0,0.21-0.02,0.34-0.07,0.41c-0.04,0.07-0.13,0.1-0.25,0.1H253.58z
				 M256.74,126.14c0-0.22-0.03-0.43-0.1-0.62s-0.16-0.36-0.28-0.5s-0.28-0.25-0.46-0.33s-0.39-0.12-0.63-0.12
				c-0.48,0-0.86,0.14-1.13,0.41c-0.28,0.28-0.45,0.66-0.52,1.16H256.74z"/>
		</g>
		<g>
			<path class="st0" d="M263.83,121.81c0,0.12-0.02,0.23-0.07,0.34c-0.05,0.11-0.11,0.2-0.19,0.28s-0.18,0.14-0.29,0.19
				c-0.11,0.05-0.23,0.07-0.35,0.07c-0.12,0-0.23-0.02-0.33-0.07c-0.11-0.05-0.2-0.11-0.27-0.19s-0.14-0.17-0.19-0.28
				c-0.05-0.11-0.07-0.22-0.07-0.34c0-0.12,0.02-0.24,0.07-0.34c0.05-0.11,0.11-0.2,0.19-0.28s0.17-0.14,0.27-0.19
				c0.1-0.05,0.22-0.07,0.33-0.07c0.12,0,0.24,0.02,0.35,0.07c0.11,0.05,0.2,0.11,0.29,0.19s0.15,0.17,0.19,0.28
				C263.81,121.57,263.83,121.68,263.83,121.81z M263.61,123.7v6.28h-1.32v-6.28H263.61z"/>
		</g>
		<g>
			<path class="st0" d="M266.52,124.54c0.14-0.14,0.28-0.27,0.42-0.38s0.3-0.21,0.46-0.29s0.34-0.15,0.52-0.19
				c0.19-0.05,0.39-0.07,0.6-0.07c0.34,0,0.65,0.06,0.91,0.17c0.26,0.12,0.48,0.28,0.66,0.49s0.31,0.46,0.4,0.75
				c0.09,0.29,0.14,0.62,0.14,0.97v4h-1.32v-4c0-0.42-0.1-0.75-0.29-0.99c-0.19-0.23-0.49-0.35-0.89-0.35c-0.3,0-0.57,0.07-0.82,0.2
				c-0.25,0.14-0.49,0.32-0.71,0.55v4.58h-1.32v-6.28h0.8c0.18,0,0.3,0.08,0.34,0.25L266.52,124.54z"/>
		</g>
		<g>
			<path class="st0" d="M278.26,121.12c0.58,0,1.08,0.07,1.51,0.2c0.43,0.14,0.78,0.33,1.05,0.57c0.28,0.24,0.48,0.54,0.62,0.88
				s0.2,0.72,0.2,1.14c0,0.42-0.07,0.81-0.22,1.16s-0.36,0.65-0.64,0.91c-0.28,0.25-0.63,0.45-1.06,0.59
				c-0.42,0.14-0.91,0.21-1.47,0.21h-1.32v3.21h-1.44v-8.87H278.26z M278.26,125.64c0.32,0,0.6-0.04,0.85-0.12
				c0.24-0.08,0.45-0.2,0.61-0.35s0.28-0.33,0.37-0.55c0.08-0.21,0.12-0.45,0.12-0.71c0-0.26-0.04-0.49-0.12-0.7
				c-0.08-0.21-0.2-0.38-0.36-0.52c-0.16-0.14-0.36-0.25-0.61-0.33c-0.24-0.08-0.53-0.11-0.86-0.11h-1.32v3.39H278.26z"/>
		</g>
		<g>
			<path class="st0" d="M282.43,124.58c0.71-0.66,1.56-0.99,2.54-0.99c0.36,0,0.68,0.06,0.96,0.18c0.28,0.12,0.52,0.28,0.71,0.5
				c0.19,0.21,0.34,0.47,0.44,0.76c0.1,0.29,0.15,0.62,0.15,0.98v3.99h-0.59c-0.13,0-0.22-0.02-0.29-0.06s-0.12-0.12-0.17-0.24
				l-0.13-0.51c-0.16,0.14-0.32,0.27-0.47,0.39c-0.16,0.11-0.32,0.21-0.48,0.29c-0.17,0.08-0.35,0.14-0.54,0.18
				c-0.19,0.04-0.4,0.06-0.63,0.06c-0.25,0-0.49-0.04-0.71-0.1s-0.41-0.18-0.57-0.32s-0.29-0.32-0.38-0.53
				c-0.09-0.21-0.14-0.46-0.14-0.74c0-0.24,0.06-0.48,0.19-0.71c0.13-0.23,0.34-0.44,0.64-0.62s0.69-0.33,1.18-0.45
				s1.09-0.19,1.8-0.2V126c0-0.45-0.1-0.79-0.29-1.01c-0.19-0.22-0.48-0.33-0.85-0.33c-0.25,0-0.47,0.03-0.64,0.1
				c-0.17,0.06-0.32,0.13-0.45,0.21c-0.13,0.07-0.24,0.14-0.34,0.21c-0.1,0.06-0.2,0.1-0.31,0.1c-0.09,0-0.17-0.02-0.23-0.07
				c-0.06-0.05-0.12-0.11-0.16-0.18L282.43,124.58z M285.94,127.24c-0.47,0.02-0.87,0.05-1.2,0.11s-0.59,0.14-0.79,0.23
				s-0.35,0.2-0.43,0.33c-0.09,0.13-0.13,0.27-0.13,0.42c0,0.15,0.02,0.27,0.07,0.38c0.05,0.1,0.11,0.19,0.2,0.26
				s0.18,0.12,0.3,0.15c0.11,0.03,0.24,0.05,0.37,0.05c0.35,0,0.64-0.06,0.89-0.19c0.25-0.13,0.49-0.32,0.72-0.56V127.24z"/>
		</g>
		<g>
			<path class="st0" d="M290.1,120.87v5.29h0.28c0.09,0,0.16-0.01,0.22-0.04c0.06-0.02,0.12-0.08,0.18-0.15l1.76-2.01
				c0.06-0.08,0.13-0.14,0.2-0.18c0.07-0.04,0.17-0.06,0.28-0.06h1.2l-2.12,2.39c-0.12,0.16-0.26,0.29-0.41,0.38
				c0.08,0.06,0.15,0.12,0.21,0.19s0.12,0.15,0.18,0.24l2.26,3.07h-1.18c-0.11,0-0.2-0.02-0.27-0.05c-0.08-0.04-0.14-0.1-0.2-0.19
				l-1.82-2.46c-0.06-0.09-0.12-0.15-0.18-0.18c-0.06-0.03-0.15-0.04-0.28-0.04h-0.33v2.93h-1.32v-9.12H290.1z"/>
		</g>
		<g>
			<path class="st0" d="M296.81,121.81c0,0.12-0.02,0.23-0.07,0.34c-0.05,0.11-0.11,0.2-0.19,0.28s-0.18,0.14-0.29,0.19
				c-0.11,0.05-0.23,0.07-0.35,0.07c-0.12,0-0.23-0.02-0.33-0.07c-0.11-0.05-0.2-0.11-0.27-0.19s-0.14-0.17-0.19-0.28
				c-0.05-0.11-0.07-0.22-0.07-0.34c0-0.12,0.02-0.24,0.07-0.34c0.05-0.11,0.11-0.2,0.19-0.28s0.17-0.14,0.27-0.19
				c0.1-0.05,0.22-0.07,0.33-0.07c0.12,0,0.24,0.02,0.35,0.07c0.11,0.05,0.2,0.11,0.29,0.19s0.15,0.17,0.19,0.28
				C296.79,121.57,296.81,121.68,296.81,121.81z M296.59,123.7v6.28h-1.32v-6.28H296.59z"/>
		</g>
		<g>
			<path class="st0" d="M302.01,124.84c-0.03,0.06-0.07,0.1-0.11,0.12c-0.04,0.02-0.09,0.04-0.15,0.04c-0.07,0-0.15-0.02-0.23-0.06
				s-0.18-0.09-0.29-0.14c-0.11-0.05-0.24-0.1-0.39-0.15c-0.15-0.04-0.33-0.06-0.53-0.06c-0.17,0-0.31,0.02-0.45,0.06
				c-0.13,0.04-0.25,0.09-0.34,0.17c-0.09,0.07-0.16,0.16-0.21,0.25c-0.05,0.1-0.07,0.2-0.07,0.31c0,0.15,0.04,0.27,0.14,0.37
				c0.09,0.1,0.21,0.18,0.36,0.26c0.15,0.07,0.32,0.14,0.5,0.19c0.19,0.06,0.38,0.12,0.58,0.19c0.2,0.07,0.39,0.14,0.58,0.23
				c0.19,0.09,0.36,0.19,0.5,0.32c0.15,0.13,0.27,0.28,0.36,0.46c0.09,0.18,0.14,0.4,0.14,0.65c0,0.3-0.05,0.57-0.16,0.82
				c-0.11,0.25-0.26,0.47-0.47,0.65c-0.21,0.19-0.46,0.33-0.77,0.43c-0.31,0.1-0.66,0.15-1.05,0.15c-0.22,0-0.43-0.02-0.63-0.06
				s-0.4-0.09-0.58-0.16s-0.35-0.15-0.51-0.24c-0.16-0.09-0.3-0.2-0.42-0.31l0.31-0.5c0.04-0.06,0.08-0.11,0.14-0.15
				c0.06-0.03,0.12-0.05,0.21-0.05c0.09,0,0.17,0.03,0.26,0.08c0.08,0.06,0.18,0.12,0.3,0.18c0.11,0.07,0.25,0.13,0.41,0.18
				c0.16,0.06,0.36,0.08,0.6,0.08c0.2,0,0.37-0.02,0.51-0.07c0.14-0.05,0.26-0.11,0.36-0.19c0.09-0.08,0.16-0.18,0.21-0.28
				c0.04-0.1,0.07-0.22,0.07-0.34c0-0.16-0.04-0.29-0.14-0.39c-0.09-0.1-0.21-0.19-0.36-0.26c-0.15-0.07-0.32-0.14-0.51-0.2
				c-0.19-0.06-0.38-0.12-0.58-0.18s-0.39-0.14-0.58-0.23c-0.19-0.09-0.36-0.2-0.51-0.33c-0.15-0.13-0.27-0.3-0.36-0.49
				c-0.09-0.19-0.14-0.42-0.14-0.7c0-0.25,0.05-0.49,0.15-0.71c0.1-0.23,0.25-0.43,0.44-0.6s0.44-0.31,0.72-0.41
				s0.62-0.15,0.99-0.15c0.42,0,0.81,0.07,1.15,0.2c0.34,0.14,0.63,0.32,0.87,0.55L302.01,124.84z"/>
		</g>
		<g>
			<path class="st0" d="M305.65,130.09c-0.52,0-0.92-0.15-1.2-0.44s-0.42-0.71-0.42-1.24v-3.66h-0.69c-0.07,0-0.14-0.02-0.19-0.07
				c-0.05-0.05-0.08-0.12-0.08-0.21v-0.54l1.02-0.15l0.29-1.82c0.02-0.07,0.06-0.13,0.1-0.17c0.05-0.04,0.12-0.06,0.2-0.06h0.68
				v2.06h1.74v0.96h-1.74v3.57c0,0.23,0.06,0.4,0.17,0.52c0.11,0.12,0.26,0.18,0.44,0.18c0.1,0,0.19-0.01,0.26-0.04
				c0.07-0.03,0.14-0.06,0.19-0.09s0.1-0.06,0.14-0.09s0.08-0.04,0.11-0.04c0.07,0,0.13,0.04,0.18,0.12l0.39,0.65
				c-0.21,0.18-0.45,0.32-0.73,0.42C306.23,130.04,305.94,130.09,305.65,130.09z"/>
		</g>
		<g>
			<path class="st0" d="M307.98,124.58c0.71-0.66,1.56-0.99,2.54-0.99c0.36,0,0.68,0.06,0.96,0.18c0.28,0.12,0.52,0.28,0.71,0.5
				c0.19,0.21,0.34,0.47,0.44,0.76c0.1,0.29,0.15,0.62,0.15,0.98v3.99h-0.59c-0.13,0-0.22-0.02-0.29-0.06s-0.12-0.12-0.17-0.24
				l-0.13-0.51c-0.16,0.14-0.32,0.27-0.47,0.39c-0.16,0.11-0.32,0.21-0.48,0.29c-0.17,0.08-0.35,0.14-0.54,0.18
				c-0.19,0.04-0.4,0.06-0.63,0.06c-0.25,0-0.49-0.04-0.71-0.1s-0.41-0.18-0.57-0.32s-0.29-0.32-0.38-0.53
				c-0.09-0.21-0.14-0.46-0.14-0.74c0-0.24,0.06-0.48,0.19-0.71c0.13-0.23,0.34-0.44,0.64-0.62s0.69-0.33,1.18-0.45
				s1.09-0.19,1.8-0.2V126c0-0.45-0.1-0.79-0.29-1.01c-0.19-0.22-0.48-0.33-0.85-0.33c-0.25,0-0.47,0.03-0.64,0.1
				c-0.17,0.06-0.32,0.13-0.45,0.21c-0.13,0.07-0.24,0.14-0.34,0.21c-0.1,0.06-0.2,0.1-0.31,0.1c-0.09,0-0.17-0.02-0.23-0.07
				c-0.06-0.05-0.12-0.11-0.16-0.18L307.98,124.58z M311.49,127.24c-0.47,0.02-0.87,0.05-1.2,0.11s-0.59,0.14-0.79,0.23
				s-0.35,0.2-0.43,0.33c-0.09,0.13-0.13,0.27-0.13,0.42c0,0.15,0.02,0.27,0.07,0.38c0.05,0.1,0.11,0.19,0.2,0.26
				s0.18,0.12,0.3,0.15c0.11,0.03,0.24,0.05,0.37,0.05c0.35,0,0.64-0.06,0.89-0.19c0.25-0.13,0.49-0.32,0.72-0.56V127.24z"/>
		</g>
		<g>
			<path class="st0" d="M315.56,124.54c0.14-0.14,0.28-0.27,0.42-0.38s0.3-0.21,0.46-0.29s0.34-0.15,0.52-0.19
				c0.19-0.05,0.39-0.07,0.6-0.07c0.34,0,0.65,0.06,0.91,0.17c0.26,0.12,0.48,0.28,0.66,0.49s0.31,0.46,0.4,0.75
				c0.09,0.29,0.14,0.62,0.14,0.97v4h-1.32v-4c0-0.42-0.1-0.75-0.29-0.99c-0.19-0.23-0.49-0.35-0.89-0.35c-0.3,0-0.57,0.07-0.82,0.2
				c-0.25,0.14-0.49,0.32-0.71,0.55v4.58h-1.32v-6.28h0.8c0.18,0,0.3,0.08,0.34,0.25L315.56,124.54z"/>
		</g>
	</g>
	<g>
		<g>
			<g>
				<path class="st0" d="M69.56,27.83c0.08,0.27,0.21,0.42,0.54,0.44c0.82,0.05,0.91,0.01,1.17-0.78c0.34-1.05,0.68-2.1,1.07-3.32
					c0.4,1.29,0.76,2.39,1.08,3.5c0.14,0.51,0.45,0.59,0.93,0.6c0.48,0.01,0.67-0.16,0.81-0.6c0.48-1.6,1.01-3.19,1.51-4.79
					c0.04-0.14,0.13-0.31-0.03-0.44c-1.21-0.1-1.21-0.1-1.52,1.02c-0.27,0.96-0.54,1.92-0.87,3.06c-0.39-1.29-0.73-2.4-1.05-3.51
					c-0.12-0.43-0.34-0.64-0.81-0.63c-0.45,0.01-0.71,0.15-0.84,0.6c-0.27,0.93-0.57,1.84-0.86,2.76c0.03,0.17,0.04,0.33-0.16,0.41
					l0,0c0.03,0.13-0.02,0.28-0.12,0.26c-0.09-0.01-0.1-0.18-0.06-0.3l0,0v0c-0.26-0.96-0.52-1.93-0.78-2.89
					c-0.23-0.85-0.24-0.85-1.11-0.84c-0.16,0-0.32-0.03-0.46,0.1c-0.01,0.06-0.04,0.13-0.02,0.18
					C68.48,24.39,69.02,26.11,69.56,27.83z"/>
			</g>
		</g>
		<g>
			<g>
				<path class="st0" d="M48.89,28.26c0.83,0.05,0.91,0.02,1.17-0.78c0.33-1.01,0.65-2.03,0.98-3.04c0.27,0.34,0.38,0.66,0.48,0.99
					c0.25,0.8,0.53,1.59,0.75,2.4c0.15,0.56,0.57,0.4,0.93,0.43c0.36,0.03,0.58-0.06,0.69-0.47c0.28-1.02,0.63-2.03,0.95-3.04
					c0.23-0.75,0.54-1.49,0.68-2.28c-1.32-0.17-1.32-0.17-1.64,1.01c-0.26,0.92-0.51,1.84-0.76,2.77c-0.05,0-0.11,0-0.16,0
					c-0.28-0.92-0.55-1.85-0.85-2.77c-0.16-0.48-0.1-1.1-0.93-1.12c-0.89-0.02-0.84,0.65-1.01,1.16c-0.31,0.91-0.58,1.84-0.86,2.77
					c-0.25-0.13-0.25-0.37-0.31-0.58c-0.24-0.9-0.51-1.8-0.72-2.7c-0.11-0.47-0.35-0.66-0.81-0.62c-0.25,0.02-0.52-0.07-0.79,0.15
					c0.56,1.76,1.13,3.53,1.68,5.31C48.45,28.13,48.58,28.24,48.89,28.26z"/>
			</g>
		</g>
		<g>
			<g>
				<path class="st0" d="M58.91,27.72c0.12,0.39,0.3,0.58,0.75,0.55c0.44-0.03,0.8-0.03,0.95-0.57c0.31-1.11,0.69-2.21,1.05-3.35
					c0.24,0.23,0.27,0.45,0.34,0.67c0.29,0.92,0.6,1.83,0.86,2.76c0.13,0.46,0.42,0.5,0.8,0.48c0.34-0.02,0.69,0.08,0.83-0.42
					c0.53-1.78,1.11-3.55,1.67-5.34c-1.31-0.24-1.34-0.22-1.67,0.94c-0.28,0.97-0.47,1.97-0.89,2.98c-0.36-1.2-0.72-2.3-1.03-3.42
					c-0.12-0.45-0.34-0.64-0.81-0.63c-0.44,0.01-0.71,0.13-0.84,0.6c-0.26,0.96-0.58,1.91-0.89,2.86c-0.05,0.16,0.01,0.42-0.3,0.37
					c-0.27-1-0.54-1.99-0.81-2.98c-0.24-0.85-0.24-0.85-1.11-0.84c-0.16,0-0.32-0.03-0.48,0.11c0,0.07-0.02,0.17,0,0.25
					C57.87,24.4,58.4,26.06,58.91,27.72z"/>
			</g>
		</g>
		<g>
			<g>
				<path class="st0" d="M77.9,27.46c0-0.12,0.02-0.24,0.07-0.35s0.11-0.21,0.19-0.29s0.18-0.14,0.29-0.19
					c0.11-0.05,0.23-0.07,0.36-0.07c0.12,0,0.24,0.02,0.35,0.07c0.11,0.05,0.21,0.11,0.29,0.19c0.08,0.08,0.15,0.18,0.19,0.29
					s0.07,0.23,0.07,0.35c0,0.13-0.02,0.25-0.07,0.36s-0.11,0.21-0.19,0.29c-0.08,0.08-0.18,0.14-0.29,0.19
					c-0.11,0.05-0.23,0.07-0.35,0.07c-0.13,0-0.25-0.02-0.36-0.07c-0.11-0.05-0.21-0.11-0.29-0.19s-0.15-0.18-0.19-0.29
					S77.9,27.58,77.9,27.46z"/>
			</g>
		</g>
	</g>
</g>
</svg>
