<?xml version="1.0" encoding="utf-8"?>
<!-- Generator: Adobe Illustrator 25.4.1, SVG Export Plug-In . SVG Version: 6.00 Build 0)  -->
<svg version="1.1" id="Layer_1" xmlns="http://www.w3.org/2000/svg" xmlns:xlink="http://www.w3.org/1999/xlink" x="0px" y="0px"
	 viewBox="0 0 289.9 114.3" style="enable-background:new 0 0 289.9 114.3;" xml:space="preserve">
<style type="text/css">
	.st0{fill:#0E0E0D;}
	.st1{fill:#0F0F0E;}
	.st2{fill:#10100F;}
	.st3{fill:#9D2B48;}
	.st4{fill:#11100F;}
	.st5{fill:#9B2C47;}
	.st6{fill:#662382;}
	.st7{fill:#A37BB4;}
	.st8{fill:#4D1A62;}
	.st9{fill:#854F9B;}
</style>
<g>
	<g>
		<g>
			<path class="st0" d="M124,48.2c0.1,0,0.3,0.1,0.4,0.1c1.4,0.2,2.8-0.1,4.2-0.5c3.7-1.1,7.1-2.9,10.1-5.4c0,0.4-0.1,0.8-0.1,1.3
				c0,0.5,0,1,0,1.5c0.1,0.8,0.3,1.6,0.7,2.3c0.1,0.1,0.1,0.2,0.2,0.3c0.7,1.3,1.8,1.7,3.2,1.2c0.5-0.2,1-0.4,1.4-0.8
				c1.6-1,3-2.2,4.5-3.3c0.2-0.2,0.5-0.4,0.8-0.5c0.2,0.6,0.4,1.1,0.6,1.7c0.4,0.9,0.8,1.7,1.4,2.4c0.6,0.6,1.3,0.9,2.2,0.6
				c1.7-0.6,3.1-1.7,4.2-3.2c0.1-0.2,0.2-0.4,0.3-0.5c0.1-0.1,0.1-0.2,0.2-0.2c0.4-0.1,0.4,1,0.4,1.2c0.1,0.4,0.1,0.8,0.3,1.2
				c0.3,0.7,0.8,1.4,1.6,1.6c0.4,0.1,0.8,0,1.2-0.2c1.5-0.5,2.8-1.6,3.7-2.9c0.1-0.1,0.2-0.2,0.3-0.2c0,0,0.1,0.1,0.1,0.1
				c0.2,0.4,0.3,0.8,0.6,1.2c0.2,0.4,0.6,0.7,1,0.9c0.7,0.2,1.5-0.2,2.2-0.7c0.7-0.6,1.3-1.2,1.6-2.1c0.4-1,0.3-2,0.1-3
				s-0.4-2-0.4-3c-0.6,0.5-1.2,1-1.3,1.7c-0.1,0.5,0.1,1,0.1,1.4c0.1,0.5,0.1,1,0,1.5s-0.5,1-0.9,1.2c-0.5,0.2-1.1,0.2-1.4-0.2
				c-0.3-0.3-0.4-0.7-0.4-1s0.2-0.7,0.4-1.1c0.2-0.3,0.5-0.7,0.4-1c-0.1-0.2-0.3-0.4-0.4-0.5c-0.9,2.4-3.2,4.3-5.7,4.7
				c-0.4,0.1-0.8,0.1-1.2-0.1c-0.5-0.3-0.6-0.9-0.7-1.4c-0.1-0.7,0-1.3,0.3-2c0-0.1,0.1-0.2,0-0.3c-0.1-0.1-0.3,0-0.4,0.1
				c-1.2,1.2-2.5,2.3-4.1,2.9c-1.6,0.6-3.3,0-4.1-1.5c-0.2-0.4-0.2-0.6,0.1-0.9c0.9-0.6,1.6-1.3,2.5-2c0.3-0.3,0.6-0.6,0.8-0.9
				c1.1-1.8,0.9-3.7-0.6-5.2c-0.9-0.9-1.9-1.7-2.9-2.5c-0.5-0.4-0.7-0.8-0.7-1.4c-0.1-3.3-0.3-6.5-0.9-9.7c-0.3-1.4-0.6-2.8-1.1-4.2
				c-0.1-0.2-0.2-0.4-0.4-0.5c-0.3-0.1-0.7-0.1-0.7,0.3c0,0.1,0,0.3,0,0.4c0.1,0.4,0.1,0.8,0.2,1.2c0,0.4,0.1,0.7,0.1,1.1
				c0.1,0.9,0.2,1.8,0.3,2.7c0.1,0.9,0.2,1.9,0.3,2.8c0.2,1.7,0.3,3.3,0.4,5.2c0,0-0.2-0.2-0.2-0.2c-0.1-0.1-0.2-0.1-0.3-0.2
				c-0.2-0.1-0.4-0.3-0.5-0.4c-0.3-0.3-0.7-0.5-1-0.8c-0.7-0.5-1.3-1.1-2-1.6c-0.3-0.3-0.7-0.5-1-0.8c-0.1,0-0.1,0.4-0.1,0.4
				c0,0.2,0,0.4,0,0.6c0.1,0.6,0.3,1,0.7,1.4c1.4,1.2,2.8,2.5,4.2,3.8c0.3,0.3,0.5,0.5,0.5,1c0,1.4,0.1,2.8,0.2,4.2
				c0,0.7,0,1.4,0,2.1c0,0.5,0.2,1.4-0.2,1.9c-0.3,0.3-0.8,0.6-1.1,0.8c-0.5,0.3-0.9,0.7-1.4,1c-0.9,0.7-1.8,1.3-2.7,1.9
				c-0.4,0.3-0.8,0.5-1.2,0.6c-1.5,0.5-2.8-0.3-3-1.9c-0.1-0.6-0.2-1.1-0.1-1.7c0.1-0.7,0.5-1.2,0.8-1.8c0.4-0.6,0.7-1.3,0.8-2
				c0.3-1,0.2-2.2-0.5-3c-0.6-0.8-1.6-1.2-2.5-1.4c-1-0.2-2-0.3-2.9-0.6c-0.3-0.1-0.5-0.2-0.7-0.4c-0.5-0.5-0.2-1.3,0.1-2
				c1.1-2.1,2.5-3.9,4.3-5.4c0.2-0.2,0.4-0.3,0.6-0.3c0.6,0,0.7,1.1,1.2,1.3c0.8-1.2,0.9-2.7,0.3-4c-0.2-0.4-0.5-0.7-0.9-0.8
				c-0.4-0.1-0.7,0.1-1,0.4c-1.6,1.1-2.8,2.7-3.9,4.3c-1.1,1.8-2.1,3.7-2.5,5.8c-0.2,1.2-0.3,2.6,0.5,3.6c0.6,0.9,1.6,1.3,2.6,1.6
				c1,0.3,2,0.5,3,0.9c0.2,0.1,0.4,0.2,0.4,0.4c0,0.1-0.1,0.3-0.2,0.4c-2.1,2.2-4.7,3.8-7.5,5.1c-1.5,0.6-3,1.2-4.6,1.3
				c-1.6,0.1-3.3-0.3-4.5-1.4c-1.5-1.3-2.1-3.2-2.2-5.2c-0.1-0.9-0.1-1.9-0.1-2.9c0-0.4,0-0.9,0-1.3c0-0.3,0-0.5-0.1-0.8
				c0-0.1-0.3-0.7-0.4-0.3c-0.2,0.8-0.4,1.6-0.5,2.4c-0.2,1-0.4,2-0.4,3c-0.1,2,0.2,4,1.2,5.7C120.8,46.5,122.3,47.8,124,48.2z
				 M150.7,34.8c0.1-0.1,0.2,0,0.3,0.1c0.6,0.5,1.1,1,1.6,1.5c0.3,0.3,0.6,0.8,0.5,1.3c-0.1,0.5-0.6,0.9-0.9,1.2
				c-0.6,0.4-1.1,0.8-1.7,1.2c0-1.1,0-2.2,0-3.3c0-0.5,0-1.1,0-1.6C150.5,35,150.6,34.9,150.7,34.8z"/>
		</g>
	</g>
	<g>
		<g>
			<path class="st1" d="M157.7,26.5c4.4-2,8.7-4,13.1-5.9c0.8-0.4,0.8-0.4,0.6-1.3c-0.1-0.3-0.3-0.5-0.5-0.3
				c-0.2,0.1-0.3,0.2-0.5,0.2c-2.2,1-4.4,2.1-6.6,3.1c-2.2,1-4.3,2.1-6.5,3c-0.2,0.1-0.5,0.2-0.7,0.3c-0.1,0-0.1,0.1-0.1,0.1
				c0,0,0,0.1,0,0.1c0,0.1,0.3,1,0.5,0.9C157.3,26.7,157.5,26.6,157.7,26.5z"/>
		</g>
	</g>
	<g>
		<g>
			<g>
				<path class="st0" d="M265.3,79.2c0-0.4-0.5-0.2-0.7-0.2c-1,0-2,0-3-0.4c-0.6-0.2-1.2-0.2-1.8-0.1c-1.6,0.3-2.8,1.1-3.3,2.8
					c-0.3,1.2-0.3,2.4,0.6,3.3s2,1,3.2,0.7c0.2-0.1,0.4-0.3,0.6-0.1c-0.2,0.5-0.1,1-0.2,1.5c-0.3,0-0.5-0.1-0.8-0.1
					c-1.2-0.1-2.4,0.1-3.5,0.5c-0.8,0.3-1.4,0.9-1.7,1.8c-0.3,1.2,0.2,2.3,1.6,2.8c1.7,0.7,3.5,0.6,5.2-0.2c1.9-0.9,2.7-2.9,1.5-4.8
					c-0.7-1.2-0.6-2.2,0.1-3.2c0.3-0.5,0.6-1.1,0.6-1.7c0-0.8,0-1.4,1.1-1.6C265.4,80.3,265.4,79.7,265.3,79.2z M261.4,89.1
					c-0.1,0.4-0.4,0.7-0.8,1c-0.9,0.5-1.8,0.5-2.8,0.3c-0.4-0.1-0.7-0.4-0.7-0.9s0.2-0.8,0.6-1c0.6-0.3,1.3-0.4,2-0.4
					c0.3,0,0.6,0.1,1,0.1C261.4,88.2,261.6,88.5,261.4,89.1z M261.7,81.8c0,0.7-0.2,1.2-0.7,1.7c-0.4,0.4-1,0.5-1.5,0.4
					c-0.6-0.1-0.8-0.6-0.9-1.2s0-1.2,0.4-1.8c0.4-0.7,1.2-1,1.9-0.8C261.4,80.4,261.7,80.9,261.7,81.8z"/>
			</g>
		</g>
		<g>
			<g>
				<path class="st0" d="M275.4,78.7c-0.7,0.3-1.2,0.8-1.7,1.3c-0.1,0.2-0.2,0.4-0.5,0.4c0-0.4,0-0.7,0-1.1c0-0.5-0.2-0.7-0.7-0.8
					c-1.3-0.2-1.4-0.1-1.5,1.2c-0.4,3.4-0.8,6.9-1.2,10.3c-0.3,2.2-0.5,1.7,1.6,1.8c0.4,0,0.5-0.1,0.6-0.6c0.1-1.1,0.3-2.2,0.4-3.3
					c2.4,1.2,4.3,0.7,5.8-1.5c0.4-0.5,0.6-1.1,0.9-1.7c0.5-1.4,0.6-2.8,0.3-4.3C278.8,78.8,277.1,77.9,275.4,78.7z M275.8,86.1
					c-0.7,0.9-1.6,1.1-2.6,0.7c-0.4-0.2-0.6-0.4-0.6-0.9c0.1-1.3,0.3-2.7,1.1-3.8c0.3-0.5,0.7-1,1.2-1.3c0.9-0.5,1.7-0.2,2,0.7
					c0.1,0.4,0.1,0.8,0.1,0.9C276.9,83.9,276.6,85.1,275.8,86.1z"/>
			</g>
		</g>
		<g>
			<g>
				<path class="st0" d="M289.8,78.6c-0.5,0-1.1,0-1.6,0c-0.6,0-1,0.2-1.3,0.6c-0.7,0.9-1.5,1.7-2.2,2.6c-0.2,0.2-0.4,0.4-0.5,0.5
					s-0.3,0.1-0.5,0.1c-0.2-0.1-0.1-0.3-0.1-0.4c0.3-2.2,0.5-4.4,0.8-6.6c0.2-1.3,0.2-1.3-1.1-1.3c-1.2,0-1.2,0-1.4,1.2
					c-0.4,3-0.7,6.1-1.1,9.1c-0.1,1.2-0.3,2.5-0.5,3.7c-0.1,0.4,0.1,0.6,0.5,0.6s0.8,0,1.2,0c0.5,0.1,0.7-0.2,0.8-0.7
					c0.1-1.2,0.3-2.3,0.4-3.4c0-0.2,0-0.4,0.2-0.5c0.3-0.1,0.5,0,0.7,0.2c0.1,0.2,0.2,0.4,0.3,0.6c0.5,1,1.1,2.1,1.6,3.1
					c0.2,0.3,0.4,0.6,0.8,0.7c0.7,0,1.4,0,2.2,0c-1-2-2-3.9-2.9-5.7c1.3-1.4,2.5-2.8,3.8-4.2C289.9,78.8,289.9,78.7,289.8,78.6z"/>
			</g>
		</g>
		<g>
			<g>
				<path class="st0" d="M244.2,78.5c-1.6,0-2.8,0.6-3.8,1.7c-1.4,1.6-1.8,3.4-1.5,5.4c0.3,2.1,1.8,3.3,3.9,3.2
					c1.2,0,2.3-0.5,3.2-1.4c1.3-1.3,1.9-2.9,1.9-4.7c0-0.3,0-0.6,0-0.9C247.6,79.8,246.2,78.5,244.2,78.5z M244.5,86.1
					c-0.3,0.4-0.7,0.7-1.2,0.8c-0.9,0.2-1.7-0.2-2-1.1c-0.1-0.4-0.1-0.9-0.2-1.3c0.1-1.1,0.3-2.2,0.9-3.1c0.4-0.6,1-1,1.8-1
					c0.7,0,1.3,0.3,1.5,1C245.7,83.1,245.5,84.7,244.5,86.1z"/>
			</g>
		</g>
		<g>
			<g>
				<path class="st1" d="M255.3,80.9c0.2-0.2,0.1-0.6,0.2-0.8c0.1-0.3,0.1-0.6,0.2-0.9s-0.1-0.5-0.4-0.5c-0.6-0.1-1.2,0.1-1.7,0.4
					c-0.5,0.4-0.9,1-1.5,1.7c0-0.6,0-0.9,0-1.3c0-0.6-0.1-0.8-0.8-0.8c-0.2,0-0.4,0-0.6,0c-0.5-0.1-0.7,0.1-0.8,0.7
					c-0.3,2.9-0.7,5.9-1.1,8.8c0,0.2-0.1,0.4,0.2,0.6c0.4,0,1,0,1.5,0c0.7,0,0.7,0,0.8-0.8c0.1-1.1,0.3-2.2,0.4-3.4
					c0.1-1,0.5-1.9,1-2.8c0.4-0.6,1-0.9,1.7-1C254.7,80.8,255,81.1,255.3,80.9z"/>
			</g>
		</g>
		<g>
			<g>
				<path class="st2" d="M235.7,85.9c-0.8,0-1.5,0.6-1.5,1.5c0,0.8,0.6,1.5,1.4,1.5c0.9,0,1.6-0.6,1.6-1.4
					C237.3,86.5,236.6,85.8,235.7,85.9z"/>
			</g>
		</g>
		<g>
			<g>
				<path class="st2" d="M266.8,85.9c-0.9,0-1.5,0.6-1.5,1.5c0,0.8,0.6,1.5,1.5,1.5s1.5-0.6,1.5-1.4
					C268.3,86.6,267.6,85.9,266.8,85.9z"/>
			</g>
		</g>
	</g>
	<g>
		<g>
			<path class="st3" d="M70.2,36.1C70.3,36.1,70.3,36,70.2,36.1c-0.1-0.2-0.2-0.1-0.3,0l0,0C70,36.1,70.1,36.1,70.2,36.1z"/>
		</g>
	</g>
	<g>
		<g>
			<g>
				<path class="st1" d="M246.4,27.1c0-2.8-2.3-5.1-5.1-5.1c-2.8,0-5.1,2.3-5.1,5.1s2.3,5.1,5.1,5.1
					C244.2,32.2,246.4,29.9,246.4,27.1z M237.1,27.2c0-2.4,1.9-4.3,4.2-4.3c2.3,0,4.2,1.9,4.3,4.2c0,2.3-1.9,4.2-4.2,4.3
					C239.1,31.4,237.1,29.5,237.1,27.2z"/>
			</g>
		</g>
		<g>
			<g>
				<path class="st2" d="M256.3,31.7c2.7,0,4.8-2.1,4.8-4.8S259,22,256.3,22c-2.7,0-4.9,2.2-4.9,4.8
					C251.4,29.6,253.6,31.7,256.3,31.7z M256.2,22.9c2.2,0,4,1.8,4,4s-1.8,4.1-4,4.1s-4-1.8-4-4C252.2,24.7,254,22.9,256.2,22.9z"/>
			</g>
		</g>
		<g>
			<g>
				<path class="st2" d="M241.7,28.3c0.1,0.3,0.2,0.6,0.2,0.9c0.1,0.3,0.2,0.5,0.6,0.5c0.2,0,0.5,0,0.7-0.1
					c-0.1-0.8-0.3-1.7-0.9-2.4c0.1-0.1,0.2-0.2,0.3-0.3c0.9-1,0.5-2.2-0.8-2.5c-0.7-0.2-1.4-0.1-2.1,0c-0.3,0-0.4,0.2-0.4,0.5
					c0,1.4,0,2.8,0,4.2c0,0.5,0.2,0.5,0.6,0.5s0.7-0.1,0.6-0.6c0-0.5,0-1,0-1.4C241.4,27.6,241.5,27.7,241.7,28.3z M241,25.2
					c0.6,0,0.9,0.3,0.9,0.7s-0.4,0.7-1,0.8c-0.4,0-0.4,0-0.4-0.8C240.6,25.7,240.4,25.2,241,25.2z"/>
			</g>
		</g>
		<g>
			<g>
				<path class="st4" d="M256.2,29.6c0.3,0,0.6,0,1-0.1s0.6-0.5,0.3-0.8c-0.2-0.2-0.4-0.1-0.6-0.1c-1,0.1-1.5-0.2-1.8-0.8
					c-0.6-1.3,0.2-2.4,1.7-2.3c0.1,0,0.1,0,0.2,0c0.4,0.1,0.6,0,0.7-0.4c0.1-0.5-0.3-0.5-0.6-0.5c-0.3,0-0.5,0-0.8,0
					c-1.5,0.1-2.5,1.1-2.5,2.6C253.7,28.6,254.6,29.5,256.2,29.6z"/>
			</g>
		</g>
	</g>
	<g>
		<path d="M24.5,2.9l-2.1,7.2h-2l-1.3-5l-1.3,5h-2l-2.1-7.2h1.8l1.3,5.5l1.4-5.5h1.9l1.4,5.5l1.3-5.5H24.5z"/>
		<path d="M35.5,2.9l-2.1,7.2h-2l-1.3-5l-1.3,5h-2l-2.1-7.2h1.8l1.3,5.5l1.4-5.5h1.9l1.4,5.5l1.3-5.5H35.5z"/>
		<path d="M46.5,2.9l-2.1,7.2h-2l-1.3-5l-1.3,5h-2l-2.1-7.2h1.8l1.3,5.5l1.4-5.5h1.9l1.4,5.5l1.3-5.5H46.5z"/>
		<path d="M47.5,9.9c-0.2-0.2-0.3-0.5-0.3-0.8c0-0.3,0.1-0.6,0.3-0.8c0.2-0.2,0.5-0.3,0.8-0.3c0.3,0,0.6,0.1,0.8,0.3
			s0.3,0.5,0.3,0.8c0,0.3-0.1,0.6-0.3,0.8s-0.5,0.3-0.8,0.3C48,10.2,47.7,10.1,47.5,9.9z"/>
	</g>
	<g>
		<polygon class="st4" points="133.2,53.5 131.7,51.6 133.2,49.8 134.7,51.6 		"/>
	</g>
	<g>
		<polygon class="st4" points="136.2,53.5 134.7,51.6 136.2,49.8 137.7,51.6 		"/>
	</g>
	<g>
		<polygon class="st4" points="163.4,36.6 161.8,34.7 163.4,32.9 164.9,34.7 		"/>
	</g>
	<g>
		<polygon class="st4" points="166.4,36.6 164.9,34.7 166.4,32.9 167.9,34.7 		"/>
	</g>
	<g>
		<polygon class="st4" points="164.9,32.9 163.4,31.1 164.9,29.3 166.4,31.1 		"/>
	</g>
	<g>
		<g>
			<path class="st5" d="M92.7,11.1c0,0-0.1-0.1-0.1-0.1c-0.4-0.3-1-0.5-1.7-0.5c-0.5,0-1,0.1-1.5,0.2c-0.1,0-0.2,0-0.3,0.1
				c-2.4,0.8-5.2,3-8.2,6.6c-3.8,4.6-7,10.2-9.6,16.6c-4,2.8-8.6,6.2-13.7,10.2c0.6-2.8,1-5.5,1-8c0-4.8-1.3-8.7-3.8-11.5
				c-2.5-2.8-6-4.2-10.3-4.2c-8,0-16,3.5-24.1,10.4C13.8,36.4,8.8,42.6,5.3,49.4C1.8,56.2,0,63.1,0,70c0,10.8,3.7,18.3,11,22.8
				c-1.8,3.8-2.7,7.4-2.7,10.6c0,2.2,0.5,4.6,1.4,7.1c0.9,2.5,1.8,3.8,2.6,3.8c0.4,0,0.5-0.2,0.5-0.5c0-0.3-0.1-0.6-0.3-0.9
				c-2-3-3-6.2-3-9.7c0-2.8,0.8-6.1,2.5-9.8c3,1.5,6.4,2.3,10.3,2.3c13.6,0,26-6,36.9-18.1c3.8-4.2,6.5-8.3,8.2-12.3
				c1.7-4,3.5-10.9,5.5-20.5c1.2-6.1,2.2-10.4,2.8-12.7c4.9-3.4,9-7,12.4-10.7c3.4-3.7,5.1-6.5,5.1-8.5
				C93.3,12.1,93.1,11.5,92.7,11.1z M11.6,91.6c-5.1-3.4-7.7-9.1-7.7-17.2c0-12.3,4.4-24.1,13.3-35.6c8.9-11.5,18-17.2,27.5-17.2
				c3.8,0,6.9,1.3,9.3,3.9c2.3,2.6,3.5,6.1,3.5,10.4c0,2.6-0.4,5.7-1.3,9.3C40.9,56.9,29.7,67,22.6,75.7c-2.2-2.1-3.2-4.5-3.2-7.2
				c0-1.4,0.3-2.9,1-4.4c0.6-1.5,1.2-2.2,1.9-2.2c0.2,0,0.3,0.1,0.3,0.4c0,0.1-0.1,0.4-0.2,0.9c-0.4,0.7-0.5,1.3-0.5,2
				c0,1.9,0.9,2.9,2.6,2.9c1.2,0,2.2-0.5,3.1-1.5c0.9-1,1.3-2.1,1.3-3.4c0-2.5-1.2-3.8-3.5-3.8c-1.9,0-3.5,0.9-4.9,2.6
				c-1.3,1.7-2,3.8-2,6.3c0,3.2,1.2,6,3.5,8.4C17.4,82,14,87,11.6,91.6z M55.6,47c-2.6,8.4-6.6,15.7-12,21.7c-5.4,6-10.5,9-15.5,9
				c-1.7,0-3.3-0.5-4.8-1.3c5.9-7.1,15.5-15.9,28.8-26.6L55.6,47z M68.3,42.4c-2.7,8.5-4.6,14.4-5.8,17.5c-1.2,3.1-2.8,6.4-4.9,10
				c-4.4,7.7-9.8,13.8-16,18.1c-6.2,4.4-12.6,6.5-19.2,6.5c-3.7,0-6.9-0.8-9.8-2.3C15.4,87,18.7,82,22.7,77.2c1.9,1,3.7,1.5,5.3,1.5
				c5.3,0,11-3.3,16.8-9.8c5.8-6.5,9.9-14.2,12.2-22.8c4.9-3.9,9.4-7.3,13.5-10.3C69.7,38.1,69,40.3,68.3,42.4z M76.2,30.6
				c1.6-5.1,3.8-9.5,6.7-13.3c2.4-3.1,4.6-5,6.6-5.5c0.4-0.1,0.9-0.2,1.3-0.2c1,0,1.5,0.5,1.5,1.5c0,1.7-1.5,4.2-4.6,7.5
				c-0.3,0.3-0.5,0.6-0.8,0.9C84,24.5,80.4,27.5,76.2,30.6z"/>
		</g>
		<g>
			<path class="st5" d="M105.4,73.6c-0.2,0-0.5,0.2-0.6,0.6l-1,1.4l-1.2,1.9l-0.5,0.7c-6.4,10.3-10.9,15.5-13.7,15.5
				c-1.5,0-2.3-0.9-2.3-2.6c0-1.5,1.7-5.2,5.2-11.2c3.1-5.3,4.7-9.4,4.7-12.2c0-2.2-0.5-4-1.6-5.5c-1.1-1.5-2.4-2.3-3.9-2.3
				c-3.8,0-9.1,5.7-15.7,17.1c5.2-10.2,8-15.4,8.2-15.8c7.2-13.6,12.7-23.8,16.4-30.7c-1.3,0.4-2.6,0.6-4,0.6
				c-0.7,0-1.6-0.1-2.7-0.4l-8,15.8c-6,11.9-9.6,18.9-10.7,21.1c-2.2,4.5-3.8,8-4.9,10.3l-7.8,16.3c1.3-0.2,2.3-0.4,3.1-0.4
				c0.7,0,1.6,0.1,2.7,0.4c6.2-12.9,11-21.6,14.5-26.3c3.7-4.8,6.5-7.2,8.7-7.2c1.4,0,2.2,0.8,2.2,2.4c0,1.3-2.1,5.6-6.3,12.8
				c-2.7,4.6-4,8.4-4,11.2c0,2.1,0.5,3.9,1.6,5.3c1.1,1.4,2.5,2.1,4.2,2.1c3,0,7.6-4.7,13.7-14.2c0.4-0.6,0.8-1.2,1.2-1.8l2.3-3.6
				c0.4-0.4,0.5-0.8,0.5-1.1C105.6,73.6,105.6,73.6,105.4,73.6z"/>
		</g>
		<g>
			<path class="st5" d="M142.4,73.6c-0.2,0-0.4,0.2-0.6,0.6c-0.8,1.3-1.5,2.5-2.3,3.7c-2.4,3.9-4.8,7.2-7.2,10.1
				c-3.1,3.8-5.4,5.6-6.8,5.6c-1.4,0-2.1-1-2.1-2.9c0-2,1.6-6.2,4.9-12.5l9.4-18c-1.5,0.3-2.8,0.4-3.7,0.4c-0.8,0-1.8-0.2-2.8-0.4
				l-2.7,6c0.3-1.2,0.4-2.1,0.4-2.8c0-2.5-1.1-3.7-3.3-3.7c-2.6,0-6,1.4-10.1,4.1c-6.5,4.1-10.7,8.6-12.8,13.5c-0.4,1-0.7,1.9-1,2.9
				c-0.3,1.4-0.5,2.9-0.5,4.4c0,2.8,0.6,5.2,1.9,7c1.3,1.9,2.8,2.8,4.7,2.8c1.8,0,3.6-1,5.4-3s4.6-5.9,8.1-11.6
				c-1.1,2.6-1.7,5-1.7,7.2c0,2.1,0.5,3.9,1.5,5.3s2.3,2.1,4,2.1c2.4,0,5.7-2.9,9.8-8.7c1.4-2,2.7-3.7,3.7-5.2c2.7-3.8,4-6.1,4-6.7
				C142.7,73.7,142.6,73.6,142.4,73.6z M120.8,79.6c-6,9.4-10.2,14-12.6,14c-2,0-3.1-1.3-3.1-4c0-4.5,2.6-10.5,7.9-17.9
				c5.3-7.4,9.5-11,12.8-11c1.6,0,2.4,1,2.4,3C128.1,66.6,125.7,71.9,120.8,79.6z"/>
		</g>
		<g>
			<path class="st5" d="M179.4,73.6c-0.2,0-0.4,0.2-0.6,0.6c-0.7,1.3-1.5,2.5-2.2,3.6c-2.5,3.9-4.9,7.3-7.3,10.2
				c-3.1,3.8-5.4,5.6-6.8,5.6c-1.4,0-2.1-1-2.1-2.9c0-2,1.6-6.2,4.9-12.5l9.4-18c-1.5,0.3-2.8,0.4-3.7,0.4c-0.8,0-1.8-0.2-2.8-0.4
				l-2.7,6c0.3-1.2,0.4-2.1,0.4-2.8c0-2.5-1.1-3.7-3.3-3.7c-2.6,0-6,1.4-10.2,4.1c-6.7,4.2-11,8.9-13,14c-0.3,0.9-0.6,1.8-0.8,2.7
				c-0.3,1.3-0.5,2.7-0.5,4.1c0,2.8,0.6,5.2,1.9,7c1.3,1.9,2.8,2.8,4.7,2.8c1.8,0,3.6-1,5.4-3s4.6-5.9,8.1-11.6
				c-1.1,2.6-1.7,5-1.7,7.2c0,2.1,0.5,3.9,1.5,5.3c1,1.4,2.3,2.1,4,2.1c2.4,0,5.7-2.9,9.8-8.7c1.4-2,2.7-3.7,3.7-5.2
				c2.7-3.8,4-6.1,4-6.7C179.7,73.7,179.6,73.6,179.4,73.6z M157.8,79.6c-6,9.4-10.2,14-12.6,14c-2,0-3.1-1.3-3.1-4
				c0-4.5,2.6-10.5,7.9-17.9c5.3-7.4,9.5-11,12.8-11c1.6,0,2.4,1,2.4,3C165.2,66.6,162.7,71.9,157.8,79.6z"/>
		</g>
		<g>
			<path class="st5" d="M216.4,73.6c-0.2,0-0.4,0.2-0.6,0.6c-0.2,0.3-0.3,0.5-0.5,0.8c-7.4,12.4-12.7,18.7-15.9,18.7
				c-1.4,0-2.2-0.9-2.2-2.8c0-1.8,1.7-6.2,5.2-13.1c3.5-6.8,11.8-22.4,25-46.8c-1.9,0.2-3,0.2-3.3,0.2c-1.1,0-2.3-0.2-3.4-0.6
				L202,67.4c0.6-1.4,0.9-2.7,0.9-3.9c0-2.5-1.1-3.7-3.3-3.7c-3.3,0-7.8,2.2-13.5,6.6c-4.7,3.5-7.8,7.3-9.5,11.4
				c-0.4,0.9-0.7,1.9-0.9,2.8c-0.3,1.3-0.5,2.7-0.5,4.1c0,2.8,0.6,5.2,1.9,7c1.3,1.9,2.8,2.8,4.7,2.8c3,0,7.6-5.1,13.7-15.2
				c-1.3,2.9-1.9,5.5-1.9,7.7c0,2.2,0.5,4,1.5,5.4c1,1.4,2.3,2.1,4,2.1c3,0,7.5-4.8,13.6-14.2c0.4-0.6,0.8-1.2,1.1-1.8l2.3-3.6
				c0.3-0.5,0.5-0.9,0.5-1C216.8,73.7,216.7,73.6,216.4,73.6z M182.1,93.7c-1.9,0-2.9-1.4-2.9-4.1c0-4.5,2.6-10.4,7.8-17.8
				c5.2-7.3,9.4-11,12.6-11c1.7,0,2.6,1.1,2.6,3.2c0,2.2-1.8,6.4-5.5,12.6C189.7,88,184.9,93.7,182.1,93.7z"/>
		</g>
		<g>
			<path class="st5" d="M231.7,45.9c-1.2,0-2.3,0.6-3.4,1.9c-1.1,1.2-1.6,2.5-1.6,3.9c0,1.8,0.8,2.8,2.4,2.8c1.2,0,2.4-0.6,3.4-1.9
				c1-1.2,1.6-2.6,1.6-4C234,46.8,233.2,45.9,231.7,45.9z M234.4,73.6c-0.2,0-0.3,0.2-0.5,0.6c-7.9,13-13.4,19.5-16.6,19.5
				c-1.7,0-2.5-0.9-2.5-2.8c0-1.8,0.9-4.4,2.6-7.7l12-22.9c-1.7,0.3-3.1,0.4-4,0.4c-0.6,0-1.5-0.2-2.6-0.4L215.4,75l-0.8,1.6
				c-0.7,1.3-1.3,2.6-1.7,3.7c-1.3,3-1.9,5.4-1.9,7.1c0,2,0.6,3.8,1.7,5.1s2.5,2.1,4.2,2.1c3.5,0,8.5-5.3,15.2-16l2.3-3.6
				c0.3-0.5,0.5-0.9,0.5-1C234.7,73.7,234.6,73.6,234.4,73.6z"/>
		</g>
	</g>
	<g>
		<g>
			<path class="st0" d="M65.8,4c-4.4,2.2-6.2,8.4-3.7,12.8c0.9,1.6,2.2,2.9,3.7,4c2.4,1.7,5,2.9,7.8,3.8c0.4,0.2,0.9,0.3,1.3,0.5
				c-0.3-0.3-0.8-0.5-1.1-0.7c-0.5-0.3-1-0.6-1.5-0.9c-1-0.6-1.9-1.3-2.8-2c-0.4-0.3-0.7-0.6-1-0.8c-1.1-0.9-2-2-2.9-3.1
				c-2.1-2.7-2-5.5-0.5-8.4c1.2-2.2,3.2-3.1,5.7-2.7c1.6,0.3,3,0.9,4.4,1.7C75.5,8.3,76.6,9,76.9,9V8.5C76.9,8.5,73,0.4,65.8,4z"/>
		</g>
		<g>
			<path class="st0" d="M92.7,11.1c0,0-0.1-0.1-0.1-0.1c-0.4-0.3-1-0.5-1.7-0.5c-0.5,0-1,0.1-1.5,0.2c-0.2-0.6-0.4-1.1-0.7-1.7
				c-1.2-2.2-3.2-3.1-5.7-2.7c-1.6,0.3-3,0.9-4.4,1.7C78.2,8.3,77.2,9,76.9,9V8.5c0,0,3.9-8.1,11-4.4C90.6,5.4,92.3,8.2,92.7,11.1z"
				/>
		</g>
		<g>
			<g>
				<polygon class="st6" points="75.1,1.4 76.9,5.4 78.6,1.4 				"/>
			</g>
			<g>
				<polygon class="st7" points="78.6,1.4 76.9,0 75.1,1.4 				"/>
			</g>
			<g>
				<polygon class="st8" points="76.9,5.4 78.6,1.4 80.3,1.4 				"/>
			</g>
			<g>
				<polygon class="st8" points="76.9,5.4 75.1,1.4 73.4,1.4 				"/>
			</g>
			<g>
				<polygon class="st6" points="79.2,0 80.3,1.4 78.6,1.4 				"/>
			</g>
			<g>
				<polygon class="st6" points="74.6,0 73.4,1.4 75.1,1.4 				"/>
			</g>
			<g>
				<g>
					<polygon class="st9" points="76.9,0 79.2,0 78.6,1.4 					"/>
				</g>
				<g>
					<polygon class="st9" points="76.9,0 74.6,0 75.1,1.4 					"/>
				</g>
			</g>
		</g>
	</g>
</g>
</svg>
